<svg width="33" height="4" viewBox="0 0 33 4" fill="none" xmlns="http://www.w3.org/2000/svg">
<mask id="path-1-inside-1_3_5016" fill="white">
<path d="M0.142822 2.12623C0.142822 1.42554 0.703577 0.854905 1.40421 0.846211C3.80079 0.81647 9.37415 0.757812 16.0532 0.757812C22.8231 0.757812 28.8214 0.818077 31.3399 0.847408C32.0403 0.855565 32.6 1.4258 32.6 2.12623C32.6 2.88504 31.9923 3.5028 31.2335 3.51156C28.6555 3.54131 22.7296 3.59992 16.0532 3.59992C9.56182 3.59992 4.11486 3.59992 1.61371 3.59992C0.799818 3.59992 0.142822 2.94013 0.142822 2.12623Z"/>
</mask>
<path d="M31.2335 3.51156L31.1874 -0.488178L31.2335 3.51156ZM31.3399 0.847408L31.3865 -3.15232L31.3399 0.847408ZM1.40421 0.846211L1.35458 -3.15348L1.40421 0.846211ZM1.45385 4.8459C3.84006 4.81629 9.3959 4.75781 16.0532 4.75781V-3.24219C9.3524 -3.24219 3.76151 -3.18335 1.35458 -3.15348L1.45385 4.8459ZM16.0532 4.75781C22.8018 4.75781 28.7832 4.8179 31.2933 4.84714L31.3865 -3.15232C28.8596 -3.18175 22.8444 -3.24219 16.0532 -3.24219V4.75781ZM31.1874 -0.488178C28.6177 -0.458523 22.7085 -0.400082 16.0532 -0.400082V7.59992C22.7506 7.59992 28.6933 7.54114 31.2797 7.51129L31.1874 -0.488178ZM16.0532 -0.400082C16.0405 -0.400082 16.0278 -0.400082 16.0152 -0.400082C16.0025 -0.400082 15.9898 -0.400082 15.9772 -0.400082C15.9645 -0.400082 15.9518 -0.400082 15.9392 -0.400082C15.9265 -0.400082 15.9139 -0.400082 15.9012 -0.400082C15.8886 -0.400082 15.8759 -0.400082 15.8633 -0.400082C15.8507 -0.400082 15.838 -0.400082 15.8254 -0.400082C15.8128 -0.400082 15.8002 -0.400082 15.7875 -0.400082C15.7749 -0.400082 15.7623 -0.400082 15.7497 -0.400082C15.7371 -0.400082 15.7245 -0.400082 15.7118 -0.400082C15.6992 -0.400082 15.6866 -0.400082 15.674 -0.400082C15.6614 -0.400082 15.6489 -0.400082 15.6363 -0.400082C15.6237 -0.400082 15.6111 -0.400082 15.5985 -0.400082C15.5859 -0.400082 15.5733 -0.400082 15.5608 -0.400082C15.5482 -0.400082 15.5356 -0.400082 15.5231 -0.400082C15.5105 -0.400082 15.4979 -0.400082 15.4854 -0.400082C15.4728 -0.400082 15.4603 -0.400082 15.4477 -0.400082C15.4352 -0.400082 15.4226 -0.400082 15.4101 -0.400082C15.3976 -0.400082 15.385 -0.400082 15.3725 -0.400082C15.36 -0.400082 15.3474 -0.400082 15.3349 -0.400082C15.3224 -0.400082 15.3099 -0.400082 15.2974 -0.400082C15.2849 -0.400082 15.2724 -0.400082 15.2598 -0.400082C15.2473 -0.400082 15.2348 -0.400082 15.2223 -0.400082C15.2098 -0.400082 15.1974 -0.400082 15.1849 -0.400082C15.1724 -0.400082 15.1599 -0.400082 15.1474 -0.400082C15.1349 -0.400082 15.1225 -0.400082 15.11 -0.400082C15.0975 -0.400082 15.0851 -0.400082 15.0726 -0.400082C15.0601 -0.400082 15.0477 -0.400082 15.0352 -0.400082C15.0228 -0.400082 15.0103 -0.400082 14.9979 -0.400082C14.9854 -0.400082 14.973 -0.400082 14.9606 -0.400082C14.9481 -0.400082 14.9357 -0.400082 14.9233 -0.400082C14.9108 -0.400082 14.8984 -0.400082 14.886 -0.400082C14.8736 -0.400082 14.8612 -0.400082 14.8488 -0.400082C14.8363 -0.400082 14.8239 -0.400082 14.8115 -0.400082C14.7991 -0.400082 14.7867 -0.400082 14.7744 -0.400082C14.762 -0.400082 14.7496 -0.400082 14.7372 -0.400082C14.7248 -0.400082 14.7124 -0.400082 14.7001 -0.400082C14.6877 -0.400082 14.6753 -0.400082 14.663 -0.400082C14.6506 -0.400082 14.6382 -0.400082 14.6259 -0.400082C14.6135 -0.400082 14.6012 -0.400082 14.5888 -0.400082C14.5765 -0.400082 14.5641 -0.400082 14.5518 -0.400082C14.5395 -0.400082 14.5271 -0.400082 14.5148 -0.400082C14.5025 -0.400082 14.4902 -0.400082 14.4778 -0.400082C14.4655 -0.400082 14.4532 -0.400082 14.4409 -0.400082C14.4286 -0.400082 14.4163 -0.400082 14.404 -0.400082C14.3917 -0.400082 14.3794 -0.400082 14.3671 -0.400082C14.3548 -0.400082 14.3425 -0.400082 14.3302 -0.400082C14.3179 -0.400082 14.3057 -0.400082 14.2934 -0.400082C14.2811 -0.400082 14.2689 -0.400082 14.2566 -0.400082C14.2443 -0.400082 14.2321 -0.400082 14.2198 -0.400082C14.2076 -0.400082 14.1953 -0.400082 14.1831 -0.400082C14.1708 -0.400082 14.1586 -0.400082 14.1463 -0.400082C14.1341 -0.400082 14.1219 -0.400082 14.1097 -0.400082C14.0974 -0.400082 14.0852 -0.400082 14.073 -0.400082C14.0608 -0.400082 14.0486 -0.400082 14.0364 -0.400082C14.0242 -0.400082 14.012 -0.400082 13.9998 -0.400082C13.9876 -0.400082 13.9754 -0.400082 13.9632 -0.400082C13.951 -0.400082 13.9388 -0.400082 13.9266 -0.400082C13.9144 -0.400082 13.9023 -0.400082 13.8901 -0.400082C13.8779 -0.400082 13.8658 -0.400082 13.8536 -0.400082C13.8415 -0.400082 13.8293 -0.400082 13.8172 -0.400082C13.805 -0.400082 13.7929 -0.400082 13.7807 -0.400082C13.7686 -0.400082 13.7564 -0.400082 13.7443 -0.400082C13.7322 -0.400082 13.7201 -0.400082 13.7079 -0.400082C13.6958 -0.400082 13.6837 -0.400082 13.6716 -0.400082C13.6595 -0.400082 13.6474 -0.400082 13.6353 -0.400082C13.6232 -0.400082 13.6111 -0.400082 13.599 -0.400082C13.5869 -0.400082 13.5748 -0.400082 13.5627 -0.400082C13.5506 -0.400082 13.5386 -0.400082 13.5265 -0.400082C13.5144 -0.400082 13.5024 -0.400082 13.4903 -0.400082C13.4782 -0.400082 13.4662 -0.400082 13.4541 -0.400082C13.4421 -0.400082 13.43 -0.400082 13.418 -0.400082C13.406 -0.400082 13.3939 -0.400082 13.3819 -0.400082C13.3699 -0.400082 13.3578 -0.400082 13.3458 -0.400082C13.3338 -0.400082 13.3218 -0.400082 13.3098 -0.400082C13.2977 -0.400082 13.2857 -0.400082 13.2737 -0.400082C13.2617 -0.400082 13.2497 -0.400082 13.2378 -0.400082C13.2258 -0.400082 13.2138 -0.400082 13.2018 -0.400082C13.1898 -0.400082 13.1778 -0.400082 13.1659 -0.400082C13.1539 -0.400082 13.1419 -0.400082 13.13 -0.400082C13.118 -0.400082 13.1061 -0.400082 13.0941 -0.400082C13.0822 -0.400082 13.0702 -0.400082 13.0583 -0.400082C13.0463 -0.400082 13.0344 -0.400082 13.0225 -0.400082C13.0105 -0.400082 12.9986 -0.400082 12.9867 -0.400082C12.9748 -0.400082 12.9629 -0.400082 12.9509 -0.400082C12.939 -0.400082 12.9271 -0.400082 12.9152 -0.400082C12.9033 -0.400082 12.8914 -0.400082 12.8796 -0.400082C12.8677 -0.400082 12.8558 -0.400082 12.8439 -0.400082C12.832 -0.400082 12.8202 -0.400082 12.8083 -0.400082C12.7964 -0.400082 12.7846 -0.400082 12.7727 -0.400082C12.7608 -0.400082 12.749 -0.400082 12.7371 -0.400082C12.7253 -0.400082 12.7135 -0.400082 12.7016 -0.400082C12.6898 -0.400082 12.678 -0.400082 12.6661 -0.400082C12.6543 -0.400082 12.6425 -0.400082 12.6307 -0.400082C12.6189 -0.400082 12.607 -0.400082 12.5952 -0.400082C12.5834 -0.400082 12.5716 -0.400082 12.5598 -0.400082C12.548 -0.400082 12.5363 -0.400082 12.5245 -0.400082C12.5127 -0.400082 12.5009 -0.400082 12.4891 -0.400082C12.4774 -0.400082 12.4656 -0.400082 12.4538 -0.400082C12.4421 -0.400082 12.4303 -0.400082 12.4186 -0.400082C12.4068 -0.400082 12.3951 -0.400082 12.3833 -0.400082C12.3716 -0.400082 12.3599 -0.400082 12.3481 -0.400082C12.3364 -0.400082 12.3247 -0.400082 12.313 -0.400082C12.3012 -0.400082 12.2895 -0.400082 12.2778 -0.400082C12.2661 -0.400082 12.2544 -0.400082 12.2427 -0.400082C12.231 -0.400082 12.2193 -0.400082 12.2076 -0.400082C12.196 -0.400082 12.1843 -0.400082 12.1726 -0.400082C12.1609 -0.400082 12.1493 -0.400082 12.1376 -0.400082C12.1259 -0.400082 12.1143 -0.400082 12.1026 -0.400082C12.091 -0.400082 12.0793 -0.400082 12.0677 -0.400082C12.056 -0.400082 12.0444 -0.400082 12.0328 -0.400082C12.0211 -0.400082 12.0095 -0.400082 11.9979 -0.400082C11.9863 -0.400082 11.9747 -0.400082 11.9631 -0.400082C11.9514 -0.400082 11.9398 -0.400082 11.9283 -0.400082C11.9167 -0.400082 11.9051 -0.400082 11.8935 -0.400082C11.8819 -0.400082 11.8703 -0.400082 11.8587 -0.400082C11.8472 -0.400082 11.8356 -0.400082 11.824 -0.400082C11.8125 -0.400082 11.8009 -0.400082 11.7894 -0.400082C11.7778 -0.400082 11.7663 -0.400082 11.7547 -0.400082C11.7432 -0.400082 11.7316 -0.400082 11.7201 -0.400082C11.7086 -0.400082 11.6971 -0.400082 11.6855 -0.400082C11.674 -0.400082 11.6625 -0.400082 11.651 -0.400082C11.6395 -0.400082 11.628 -0.400082 11.6165 -0.400082C11.605 -0.400082 11.5935 -0.400082 11.582 -0.400082C11.5705 -0.400082 11.5591 -0.400082 11.5476 -0.400082C11.5361 -0.400082 11.5247 -0.400082 11.5132 -0.400082C11.5017 -0.400082 11.4903 -0.400082 11.4788 -0.400082C11.4674 -0.400082 11.4559 -0.400082 11.4445 -0.400082C11.4331 -0.400082 11.4216 -0.400082 11.4102 -0.400082C11.3988 -0.400082 11.3873 -0.400082 11.3759 -0.400082C11.3645 -0.400082 11.3531 -0.400082 11.3417 -0.400082C11.3303 -0.400082 11.3189 -0.400082 11.3075 -0.400082C11.2961 -0.400082 11.2847 -0.400082 11.2734 -0.400082C11.262 -0.400082 11.2506 -0.400082 11.2392 -0.400082C11.2279 -0.400082 11.2165 -0.400082 11.2051 -0.400082C11.1938 -0.400082 11.1824 -0.400082 11.1711 -0.400082C11.1598 -0.400082 11.1484 -0.400082 11.1371 -0.400082C11.1257 -0.400082 11.1144 -0.400082 11.1031 -0.400082C11.0918 -0.400082 11.0805 -0.400082 11.0692 -0.400082C11.0578 -0.400082 11.0465 -0.400082 11.0352 -0.400082C11.024 -0.400082 11.0127 -0.400082 11.0014 -0.400082C10.9901 -0.400082 10.9788 -0.400082 10.9675 -0.400082C10.9563 -0.400082 10.945 -0.400082 10.9337 -0.400082C10.9225 -0.400082 10.9112 -0.400082 10.9 -0.400082C10.8887 -0.400082 10.8775 -0.400082 10.8662 -0.400082C10.855 -0.400082 10.8438 -0.400082 10.8325 -0.400082C10.8213 -0.400082 10.8101 -0.400082 10.7989 -0.400082C10.7877 -0.400082 10.7765 -0.400082 10.7653 -0.400082C10.7541 -0.400082 10.7429 -0.400082 10.7317 -0.400082C10.7205 -0.400082 10.7093 -0.400082 10.6981 -0.400082C10.687 -0.400082 10.6758 -0.400082 10.6646 -0.400082C10.6535 -0.400082 10.6423 -0.400082 10.6311 -0.400082C10.62 -0.400082 10.6088 -0.400082 10.5977 -0.400082C10.5866 -0.400082 10.5754 -0.400082 10.5643 -0.400082C10.5532 -0.400082 10.5421 -0.400082 10.5309 -0.400082C10.5198 -0.400082 10.5087 -0.400082 10.4976 -0.400082C10.4865 -0.400082 10.4754 -0.400082 10.4643 -0.400082C10.4532 -0.400082 10.4421 -0.400082 10.4311 -0.400082C10.42 -0.400082 10.4089 -0.400082 10.3979 -0.400082C10.3868 -0.400082 10.3757 -0.400082 10.3647 -0.400082C10.3536 -0.400082 10.3426 -0.400082 10.3315 -0.400082C10.3205 -0.400082 10.3095 -0.400082 10.2984 -0.400082C10.2874 -0.400082 10.2764 -0.400082 10.2654 -0.400082C10.2543 -0.400082 10.2433 -0.400082 10.2323 -0.400082C10.2213 -0.400082 10.2103 -0.400082 10.1993 -0.400082C10.1884 -0.400082 10.1774 -0.400082 10.1664 -0.400082C10.1554 -0.400082 10.1444 -0.400082 10.1335 -0.400082C10.1225 -0.400082 10.1116 -0.400082 10.1006 -0.400082C10.0896 -0.400082 10.0787 -0.400082 10.0678 -0.400082C10.0568 -0.400082 10.0459 -0.400082 10.035 -0.400082C10.024 -0.400082 10.0131 -0.400082 10.0022 -0.400082C9.99128 -0.400082 9.98037 -0.400082 9.96947 -0.400082C9.95857 -0.400082 9.94768 -0.400082 9.93679 -0.400082C9.9259 -0.400082 9.91502 -0.400082 9.90414 -0.400082C9.89326 -0.400082 9.88239 -0.400082 9.87153 -0.400082C9.86067 -0.400082 9.84981 -0.400082 9.83896 -0.400082C9.82811 -0.400082 9.81727 -0.400082 9.80643 -0.400082C9.79559 -0.400082 9.78476 -0.400082 9.77394 -0.400082C9.76311 -0.400082 9.7523 -0.400082 9.74148 -0.400082C9.73067 -0.400082 9.71987 -0.400082 9.70907 -0.400082C9.69827 -0.400082 9.68748 -0.400082 9.6767 -0.400082C9.66591 -0.400082 9.65513 -0.400082 9.64436 -0.400082C9.63359 -0.400082 9.62282 -0.400082 9.61206 -0.400082C9.6013 -0.400082 9.59055 -0.400082 9.57981 -0.400082C9.56906 -0.400082 9.55832 -0.400082 9.54759 -0.400082C9.53686 -0.400082 9.52613 -0.400082 9.51541 -0.400082C9.50469 -0.400082 9.49398 -0.400082 9.48327 -0.400082C9.47256 -0.400082 9.46187 -0.400082 9.45117 -0.400082C9.44048 -0.400082 9.42979 -0.400082 9.41911 -0.400082C9.40843 -0.400082 9.39776 -0.400082 9.38709 -0.400082C9.37643 -0.400082 9.36577 -0.400082 9.35511 -0.400082C9.34446 -0.400082 9.33382 -0.400082 9.32318 -0.400082C9.31254 -0.400082 9.3019 -0.400082 9.29128 -0.400082C9.28065 -0.400082 9.27003 -0.400082 9.25942 -0.400082C9.24881 -0.400082 9.2382 -0.400082 9.2276 -0.400082C9.217 -0.400082 9.20641 -0.400082 9.19582 -0.400082C9.18524 -0.400082 9.17466 -0.400082 9.16408 -0.400082C9.15351 -0.400082 9.14295 -0.400082 9.13239 -0.400082C9.12183 -0.400082 9.11127 -0.400082 9.10073 -0.400082C9.09018 -0.400082 9.07965 -0.400082 9.06911 -0.400082C9.05858 -0.400082 9.04806 -0.400082 9.03754 -0.400082C9.02702 -0.400082 9.01651 -0.400082 9.00601 -0.400082C8.9955 -0.400082 8.985 -0.400082 8.97451 -0.400082C8.96402 -0.400082 8.95354 -0.400082 8.94306 -0.400082C8.93258 -0.400082 8.92211 -0.400082 8.91165 -0.400082C8.90119 -0.400082 8.89073 -0.400082 8.88028 -0.400082C8.86983 -0.400082 8.85939 -0.400082 8.84895 -0.400082C8.83852 -0.400082 8.82809 -0.400082 8.81767 -0.400082C8.80724 -0.400082 8.79683 -0.400082 8.78642 -0.400082C8.77601 -0.400082 8.76561 -0.400082 8.75522 -0.400082C8.74482 -0.400082 8.73443 -0.400082 8.72405 -0.400082C8.71367 -0.400082 8.7033 -0.400082 8.69293 -0.400082C8.68257 -0.400082 8.67221 -0.400082 8.66186 -0.400082C8.6515 -0.400082 8.64116 -0.400082 8.63082 -0.400082C8.62048 -0.400082 8.61015 -0.400082 8.59982 -0.400082C8.5895 -0.400082 8.57918 -0.400082 8.56887 -0.400082C8.55856 -0.400082 8.54826 -0.400082 8.53796 -0.400082C8.52767 -0.400082 8.51738 -0.400082 8.50709 -0.400082C8.49681 -0.400082 8.48654 -0.400082 8.47627 -0.400082C8.466 -0.400082 8.45574 -0.400082 8.44549 -0.400082C8.43523 -0.400082 8.42498 -0.400082 8.41474 -0.400082C8.4045 -0.400082 8.39427 -0.400082 8.38405 -0.400082C8.37382 -0.400082 8.3636 -0.400082 8.35339 -0.400082C8.34318 -0.400082 8.33298 -0.400082 8.32278 -0.400082C8.31258 -0.400082 8.30239 -0.400082 8.29221 -0.400082C8.28203 -0.400082 8.27185 -0.400082 8.26168 -0.400082C8.25151 -0.400082 8.24135 -0.400082 8.2312 -0.400082C8.22104 -0.400082 8.2109 -0.400082 8.20076 -0.400082C8.19062 -0.400082 8.18049 -0.400082 8.17036 -0.400082C8.16024 -0.400082 8.15012 -0.400082 8.14001 -0.400082C8.1299 -0.400082 8.11979 -0.400082 8.1097 -0.400082C8.0996 -0.400082 8.08951 -0.400082 8.07943 -0.400082C8.06935 -0.400082 8.05927 -0.400082 8.0492 -0.400082C8.03914 -0.400082 8.02908 -0.400082 8.01902 -0.400082C8.00897 -0.400082 7.99893 -0.400082 7.98889 -0.400082C7.97885 -0.400082 7.96882 -0.400082 7.9588 -0.400082C7.94877 -0.400082 7.93876 -0.400082 7.92875 -0.400082C7.91874 -0.400082 7.90874 -0.400082 7.89874 -0.400082C7.88875 -0.400082 7.87876 -0.400082 7.86878 -0.400082C7.8588 -0.400082 7.84883 -0.400082 7.83886 -0.400082C7.8289 -0.400082 7.81894 -0.400082 7.80899 -0.400082C7.79904 -0.400082 7.7891 -0.400082 7.77916 -0.400082C7.76923 -0.400082 7.7593 -0.400082 7.74938 -0.400082C7.73946 -0.400082 7.72955 -0.400082 7.71964 -0.400082C7.70973 -0.400082 7.69984 -0.400082 7.68995 -0.400082C7.68006 -0.400082 7.67017 -0.400082 7.6603 -0.400082C7.65042 -0.400082 7.64055 -0.400082 7.63069 -0.400082C7.62083 -0.400082 7.61098 -0.400082 7.60113 -0.400082C7.59128 -0.400082 7.58145 -0.400082 7.57161 -0.400082C7.56178 -0.400082 7.55196 -0.400082 7.54214 -0.400082C7.53233 -0.400082 7.52252 -0.400082 7.51272 -0.400082C7.50292 -0.400082 7.49312 -0.400082 7.48334 -0.400082C7.47355 -0.400082 7.46377 -0.400082 7.454 -0.400082C7.44423 -0.400082 7.43447 -0.400082 7.42471 -0.400082C7.41496 -0.400082 7.40521 -0.400082 7.39547 -0.400082C7.38573 -0.400082 7.376 -0.400082 7.36627 -0.400082C7.35654 -0.400082 7.34683 -0.400082 7.33712 -0.400082C7.32741 -0.400082 7.3177 -0.400082 7.30801 -0.400082C7.29831 -0.400082 7.28863 -0.400082 7.27895 -0.400082C7.26927 -0.400082 7.2596 -0.400082 7.24993 -0.400082C7.24027 -0.400082 7.23061 -0.400082 7.22096 -0.400082C7.21131 -0.400082 7.20167 -0.400082 7.19204 -0.400082C7.1824 -0.400082 7.17278 -0.400082 7.16316 -0.400082C7.15354 -0.400082 7.14393 -0.400082 7.13433 -0.400082C7.12472 -0.400082 7.11513 -0.400082 7.10554 -0.400082C7.09595 -0.400082 7.08637 -0.400082 7.0768 -0.400082C7.06723 -0.400082 7.05767 -0.400082 7.04811 -0.400082C7.03855 -0.400082 7.029 -0.400082 7.01946 -0.400082C7.00992 -0.400082 7.00039 -0.400082 6.99086 -0.400082C6.98134 -0.400082 6.97182 -0.400082 6.96231 -0.400082C6.9528 -0.400082 6.9433 -0.400082 6.9338 -0.400082C6.92431 -0.400082 6.91482 -0.400082 6.90534 -0.400082C6.89587 -0.400082 6.88639 -0.400082 6.87693 -0.400082C6.86747 -0.400082 6.85801 -0.400082 6.84857 -0.400082C6.83912 -0.400082 6.82968 -0.400082 6.82025 -0.400082C6.81082 -0.400082 6.80139 -0.400082 6.79198 -0.400082C6.78256 -0.400082 6.77315 -0.400082 6.76375 -0.400082C6.75435 -0.400082 6.74496 -0.400082 6.73558 -0.400082C6.72619 -0.400082 6.71682 -0.400082 6.70745 -0.400082C6.69808 -0.400082 6.68872 -0.400082 6.67937 -0.400082C6.67001 -0.400082 6.66067 -0.400082 6.65133 -0.400082C6.64199 -0.400082 6.63267 -0.400082 6.62335 -0.400082C6.61402 -0.400082 6.60471 -0.400082 6.59541 -0.400082C6.5861 -0.400082 6.57681 -0.400082 6.56752 -0.400082C6.55823 -0.400082 6.54895 -0.400082 6.53967 -0.400082C6.5304 -0.400082 6.52114 -0.400082 6.51188 -0.400082C6.50262 -0.400082 6.49337 -0.400082 6.48413 -0.400082C6.47489 -0.400082 6.46566 -0.400082 6.45643 -0.400082C6.44721 -0.400082 6.43799 -0.400082 6.42878 -0.400082C6.41958 -0.400082 6.41038 -0.400082 6.40118 -0.400082C6.39199 -0.400082 6.38281 -0.400082 6.37363 -0.400082C6.36445 -0.400082 6.35529 -0.400082 6.34613 -0.400082C6.33697 -0.400082 6.32781 -0.400082 6.31867 -0.400082C6.30953 -0.400082 6.30039 -0.400082 6.29126 -0.400082C6.28214 -0.400082 6.27302 -0.400082 6.2639 -0.400082C6.25479 -0.400082 6.24569 -0.400082 6.23659 -0.400082C6.2275 -0.400082 6.21841 -0.400082 6.20933 -0.400082C6.20026 -0.400082 6.19118 -0.400082 6.18212 -0.400082C6.17306 -0.400082 6.16401 -0.400082 6.15496 -0.400082C6.14591 -0.400082 6.13688 -0.400082 6.12785 -0.400082C6.11882 -0.400082 6.1098 -0.400082 6.10078 -0.400082C6.09177 -0.400082 6.08277 -0.400082 6.07377 -0.400082C6.06477 -0.400082 6.05578 -0.400082 6.0468 -0.400082C6.03782 -0.400082 6.02885 -0.400082 6.01989 -0.400082C6.01093 -0.400082 6.00197 -0.400082 5.99302 -0.400082C5.98408 -0.400082 5.97514 -0.400082 5.96621 -0.400082C5.95728 -0.400082 5.94836 -0.400082 5.93944 -0.400082C5.93053 -0.400082 5.92162 -0.400082 5.91273 -0.400082C5.90383 -0.400082 5.89494 -0.400082 5.88606 -0.400082C5.87718 -0.400082 5.86831 -0.400082 5.85944 -0.400082C5.85058 -0.400082 5.84173 -0.400082 5.83288 -0.400082C5.82403 -0.400082 5.81519 -0.400082 5.80636 -0.400082C5.79753 -0.400082 5.78871 -0.400082 5.7799 -0.400082C5.77108 -0.400082 5.76228 -0.400082 5.75348 -0.400082C5.74469 -0.400082 5.7359 -0.400082 5.72712 -0.400082C5.71834 -0.400082 5.70957 -0.400082 5.7008 -0.400082C5.69204 -0.400082 5.68329 -0.400082 5.67454 -0.400082C5.6658 -0.400082 5.65706 -0.400082 5.64833 -0.400082C5.6396 -0.400082 5.63088 -0.400082 5.62217 -0.400082C5.61346 -0.400082 5.60475 -0.400082 5.59606 -0.400082C5.58736 -0.400082 5.57868 -0.400082 5.57 -0.400082C5.56132 -0.400082 5.55265 -0.400082 5.54399 -0.400082C5.53533 -0.400082 5.52668 -0.400082 5.51803 -0.400082C5.50939 -0.400082 5.50075 -0.400082 5.49213 -0.400082C5.4835 -0.400082 5.47488 -0.400082 5.46627 -0.400082C5.45766 -0.400082 5.44906 -0.400082 5.44047 -0.400082C5.43188 -0.400082 5.42329 -0.400082 5.41472 -0.400082C5.40614 -0.400082 5.39758 -0.400082 5.38902 -0.400082C5.38046 -0.400082 5.37191 -0.400082 5.36337 -0.400082C5.35483 -0.400082 5.3463 -0.400082 5.33777 -0.400082C5.32925 -0.400082 5.32073 -0.400082 5.31223 -0.400082C5.30372 -0.400082 5.29522 -0.400082 5.28674 -0.400082C5.27825 -0.400082 5.26977 -0.400082 5.2613 -0.400082C5.25282 -0.400082 5.24436 -0.400082 5.23591 -0.400082C5.22745 -0.400082 5.21901 -0.400082 5.21057 -0.400082C5.20213 -0.400082 5.19371 -0.400082 5.18529 -0.400082C5.17687 -0.400082 5.16846 -0.400082 5.16006 -0.400082C5.15165 -0.400082 5.14326 -0.400082 5.13488 -0.400082C5.12649 -0.400082 5.11812 -0.400082 5.10975 -0.400082C5.10138 -0.400082 5.09302 -0.400082 5.08468 -0.400082C5.07633 -0.400082 5.06799 -0.400082 5.05965 -0.400082C5.05132 -0.400082 5.043 -0.400082 5.03469 -0.400082C5.02637 -0.400082 5.01807 -0.400082 5.00977 -0.400082C5.00147 -0.400082 4.99319 -0.400082 4.98491 -0.400082C4.97663 -0.400082 4.96836 -0.400082 4.9601 -0.400082C4.95184 -0.400082 4.94358 -0.400082 4.93534 -0.400082C4.9271 -0.400082 4.91886 -0.400082 4.91064 -0.400082C4.90241 -0.400082 4.8942 -0.400082 4.88599 -0.400082C4.87778 -0.400082 4.86958 -0.400082 4.86139 -0.400082C4.8532 -0.400082 4.84502 -0.400082 4.83685 -0.400082C4.82868 -0.400082 4.82051 -0.400082 4.81236 -0.400082C4.80421 -0.400082 4.79606 -0.400082 4.78792 -0.400082C4.77979 -0.400082 4.77166 -0.400082 4.76354 -0.400082C4.75542 -0.400082 4.74731 -0.400082 4.73921 -0.400082C4.73111 -0.400082 4.72302 -0.400082 4.71494 -0.400082C4.70686 -0.400082 4.69878 -0.400082 4.69072 -0.400082C4.68266 -0.400082 4.6746 -0.400082 4.66655 -0.400082C4.65851 -0.400082 4.65047 -0.400082 4.64244 -0.400082C4.63441 -0.400082 4.62639 -0.400082 4.61838 -0.400082C4.61037 -0.400082 4.60237 -0.400082 4.59438 -0.400082C4.58639 -0.400082 4.57841 -0.400082 4.57043 -0.400082C4.56246 -0.400082 4.55449 -0.400082 4.54654 -0.400082C4.53858 -0.400082 4.53063 -0.400082 4.5227 -0.400082C4.51476 -0.400082 4.50683 -0.400082 4.49891 -0.400082C4.49099 -0.400082 4.48308 -0.400082 4.47518 -0.400082C4.46728 -0.400082 4.45939 -0.400082 4.45151 -0.400082C4.44362 -0.400082 4.43575 -0.400082 4.42789 -0.400082C4.42002 -0.400082 4.41217 -0.400082 4.40432 -0.400082C4.39647 -0.400082 4.38864 -0.400082 4.38081 -0.400082C4.37298 -0.400082 4.36516 -0.400082 4.35735 -0.400082C4.34954 -0.400082 4.34174 -0.400082 4.33395 -0.400082C4.32616 -0.400082 4.31838 -0.400082 4.31061 -0.400082C4.30284 -0.400082 4.29507 -0.400082 4.28732 -0.400082C4.27957 -0.400082 4.27182 -0.400082 4.26409 -0.400082C4.25635 -0.400082 4.24862 -0.400082 4.24091 -0.400082C4.23319 -0.400082 4.22548 -0.400082 4.21779 -0.400082C4.21009 -0.400082 4.2024 -0.400082 4.19472 -0.400082C4.18704 -0.400082 4.17937 -0.400082 4.17171 -0.400082C4.16405 -0.400082 4.15639 -0.400082 4.14875 -0.400082C4.14111 -0.400082 4.13348 -0.400082 4.12585 -0.400082C4.11823 -0.400082 4.11062 -0.400082 4.10301 -0.400082C4.09541 -0.400082 4.08781 -0.400082 4.08022 -0.400082C4.07264 -0.400082 4.06506 -0.400082 4.05749 -0.400082C4.04993 -0.400082 4.04237 -0.400082 4.03482 -0.400082C4.02727 -0.400082 4.01973 -0.400082 4.0122 -0.400082C4.00467 -0.400082 3.99715 -0.400082 3.98964 -0.400082C3.98213 -0.400082 3.97463 -0.400082 3.96714 -0.400082C3.95965 -0.400082 3.95216 -0.400082 3.94469 -0.400082C3.93722 -0.400082 3.92975 -0.400082 3.9223 -0.400082C3.91485 -0.400082 3.9074 -0.400082 3.89997 -0.400082C3.89253 -0.400082 3.88511 -0.400082 3.87769 -0.400082C3.87027 -0.400082 3.86287 -0.400082 3.85547 -0.400082C3.84807 -0.400082 3.84068 -0.400082 3.83331 -0.400082C3.82593 -0.400082 3.81856 -0.400082 3.8112 -0.400082C3.80384 -0.400082 3.79649 -0.400082 3.78915 -0.400082C3.78181 -0.400082 3.77448 -0.400082 3.76716 -0.400082C3.75984 -0.400082 3.75253 -0.400082 3.74523 -0.400082C3.73793 -0.400082 3.73064 -0.400082 3.72335 -0.400082C3.71607 -0.400082 3.7088 -0.400082 3.70153 -0.400082C3.69427 -0.400082 3.68702 -0.400082 3.67977 -0.400082C3.67253 -0.400082 3.6653 -0.400082 3.65807 -0.400082C3.65085 -0.400082 3.64363 -0.400082 3.63643 -0.400082C3.62922 -0.400082 3.62203 -0.400082 3.61484 -0.400082C3.60766 -0.400082 3.60048 -0.400082 3.59331 -0.400082C3.58615 -0.400082 3.57899 -0.400082 3.57184 -0.400082C3.56469 -0.400082 3.55756 -0.400082 3.55043 -0.400082C3.5433 -0.400082 3.53618 -0.400082 3.52908 -0.400082C3.52197 -0.400082 3.51487 -0.400082 3.50778 -0.400082C3.50069 -0.400082 3.49361 -0.400082 3.48654 -0.400082C3.47947 -0.400082 3.47242 -0.400082 3.46537 -0.400082C3.45832 -0.400082 3.45128 -0.400082 3.44425 -0.400082C3.43722 -0.400082 3.4302 -0.400082 3.42319 -0.400082C3.41617 -0.400082 3.40917 -0.400082 3.40218 -0.400082C3.39519 -0.400082 3.38821 -0.400082 3.38124 -0.400082C3.37427 -0.400082 3.36731 -0.400082 3.36036 -0.400082C3.3534 -0.400082 3.34646 -0.400082 3.33953 -0.400082C3.3326 -0.400082 3.32568 -0.400082 3.31876 -0.400082C3.31185 -0.400082 3.30495 -0.400082 3.29806 -0.400082C3.29117 -0.400082 3.28428 -0.400082 3.27741 -0.400082C3.27054 -0.400082 3.26368 -0.400082 3.25682 -0.400082C3.24997 -0.400082 3.24313 -0.400082 3.23629 -0.400082C3.22946 -0.400082 3.22264 -0.400082 3.21583 -0.400082C3.20901 -0.400082 3.20221 -0.400082 3.19542 -0.400082C3.18862 -0.400082 3.18184 -0.400082 3.17507 -0.400082C3.1683 -0.400082 3.16153 -0.400082 3.15478 -0.400082C3.14803 -0.400082 3.14128 -0.400082 3.13455 -0.400082C3.12782 -0.400082 3.12109 -0.400082 3.11438 -0.400082C3.10767 -0.400082 3.10096 -0.400082 3.09427 -0.400082C3.08758 -0.400082 3.08089 -0.400082 3.07422 -0.400082C3.06755 -0.400082 3.06089 -0.400082 3.05423 -0.400082C3.04758 -0.400082 3.04094 -0.400082 3.0343 -0.400082C3.02767 -0.400082 3.02105 -0.400082 3.01444 -0.400082C3.00782 -0.400082 3.00122 -0.400082 2.99463 -0.400082C2.98804 -0.400082 2.98145 -0.400082 2.97488 -0.400082C2.96831 -0.400082 2.96175 -0.400082 2.9552 -0.400082C2.94864 -0.400082 2.9421 -0.400082 2.93557 -0.400082C2.92904 -0.400082 2.92252 -0.400082 2.91601 -0.400082C2.9095 -0.400082 2.90299 -0.400082 2.8965 -0.400082C2.89001 -0.400082 2.88353 -0.400082 2.87706 -0.400082C2.87059 -0.400082 2.86413 -0.400082 2.85768 -0.400082C2.85123 -0.400082 2.84479 -0.400082 2.83836 -0.400082C2.83193 -0.400082 2.82551 -0.400082 2.8191 -0.400082C2.81269 -0.400082 2.80629 -0.400082 2.7999 -0.400082C2.79351 -0.400082 2.78714 -0.400082 2.78077 -0.400082C2.7744 -0.400082 2.76804 -0.400082 2.76169 -0.400082C2.75535 -0.400082 2.74901 -0.400082 2.74268 -0.400082C2.73635 -0.400082 2.73004 -0.400082 2.72373 -0.400082C2.71742 -0.400082 2.71113 -0.400082 2.70484 -0.400082C2.69855 -0.400082 2.69228 -0.400082 2.68601 -0.400082C2.67975 -0.400082 2.67349 -0.400082 2.66725 -0.400082C2.661 -0.400082 2.65477 -0.400082 2.64854 -0.400082C2.64232 -0.400082 2.63611 -0.400082 2.6299 -0.400082C2.6237 -0.400082 2.61751 -0.400082 2.61133 -0.400082C2.60514 -0.400082 2.59897 -0.400082 2.59281 -0.400082C2.58665 -0.400082 2.5805 -0.400082 2.57435 -0.400082C2.56821 -0.400082 2.56208 -0.400082 2.55596 -0.400082C2.54984 -0.400082 2.54373 -0.400082 2.53763 -0.400082C2.53153 -0.400082 2.52545 -0.400082 2.51937 -0.400082C2.51329 -0.400082 2.50722 -0.400082 2.50116 -0.400082C2.49511 -0.400082 2.48906 -0.400082 2.48302 -0.400082C2.47699 -0.400082 2.47096 -0.400082 2.46495 -0.400082C2.45893 -0.400082 2.45293 -0.400082 2.44693 -0.400082C2.44094 -0.400082 2.43495 -0.400082 2.42898 -0.400082C2.42301 -0.400082 2.41704 -0.400082 2.41109 -0.400082C2.40514 -0.400082 2.3992 -0.400082 2.39327 -0.400082C2.38733 -0.400082 2.38141 -0.400082 2.3755 -0.400082C2.36959 -0.400082 2.36369 -0.400082 2.3578 -0.400082C2.35192 -0.400082 2.34604 -0.400082 2.34017 -0.400082C2.3343 -0.400082 2.32844 -0.400082 2.3226 -0.400082C2.31675 -0.400082 2.31092 -0.400082 2.30509 -0.400082C2.29927 -0.400082 2.29345 -0.400082 2.28765 -0.400082C2.28184 -0.400082 2.27605 -0.400082 2.27027 -0.400082C2.26448 -0.400082 2.25871 -0.400082 2.25295 -0.400082C2.24719 -0.400082 2.24144 -0.400082 2.2357 -0.400082C2.22996 -0.400082 2.22423 -0.400082 2.21851 -0.400082C2.21279 -0.400082 2.20708 -0.400082 2.20139 -0.400082C2.19569 -0.400082 2.19 -0.400082 2.18433 -0.400082C2.17865 -0.400082 2.17299 -0.400082 2.16733 -0.400082C2.16168 -0.400082 2.15603 -0.400082 2.1504 -0.400082C2.14477 -0.400082 2.13915 -0.400082 2.13353 -0.400082C2.12792 -0.400082 2.12232 -0.400082 2.11673 -0.400082C2.11114 -0.400082 2.10556 -0.400082 2.1 -0.400082C2.09443 -0.400082 2.08887 -0.400082 2.08332 -0.400082C2.07778 -0.400082 2.07224 -0.400082 2.06672 -0.400082C2.06119 -0.400082 2.05568 -0.400082 2.05017 -0.400082C2.04467 -0.400082 2.03918 -0.400082 2.0337 -0.400082C2.02822 -0.400082 2.02275 -0.400082 2.01729 -0.400082C2.01183 -0.400082 2.00638 -0.400082 2.00094 -0.400082C1.9955 -0.400082 1.99007 -0.400082 1.98466 -0.400082C1.97924 -0.400082 1.97384 -0.400082 1.96844 -0.400082C1.96305 -0.400082 1.95766 -0.400082 1.95229 -0.400082C1.94692 -0.400082 1.94156 -0.400082 1.93621 -0.400082C1.93085 -0.400082 1.92551 -0.400082 1.92019 -0.400082C1.91486 -0.400082 1.90954 -0.400082 1.90423 -0.400082C1.89892 -0.400082 1.89363 -0.400082 1.88834 -0.400082C1.88306 -0.400082 1.87778 -0.400082 1.87252 -0.400082C1.86726 -0.400082 1.86201 -0.400082 1.85677 -0.400082C1.85152 -0.400082 1.84629 -0.400082 1.84108 -0.400082C1.83586 -0.400082 1.83065 -0.400082 1.82545 -0.400082C1.82025 -0.400082 1.81507 -0.400082 1.80989 -0.400082C1.80472 -0.400082 1.79956 -0.400082 1.7944 -0.400082C1.78925 -0.400082 1.78411 -0.400082 1.77898 -0.400082C1.77385 -0.400082 1.76873 -0.400082 1.76362 -0.400082C1.75851 -0.400082 1.75341 -0.400082 1.74833 -0.400082C1.74324 -0.400082 1.73817 -0.400082 1.7331 -0.400082C1.72804 -0.400082 1.72299 -0.400082 1.71794 -0.400082C1.7129 -0.400082 1.70787 -0.400082 1.70285 -0.400082C1.69783 -0.400082 1.69282 -0.400082 1.68783 -0.400082C1.68283 -0.400082 1.67784 -0.400082 1.67287 -0.400082C1.6679 -0.400082 1.66293 -0.400082 1.65798 -0.400082C1.65303 -0.400082 1.64809 -0.400082 1.64316 -0.400082C1.63823 -0.400082 1.63331 -0.400082 1.6284 -0.400082C1.62349 -0.400082 1.6186 -0.400082 1.61371 -0.400082V7.59992C1.6186 7.59992 1.62349 7.59992 1.6284 7.59992C1.63331 7.59992 1.63823 7.59992 1.64316 7.59992C1.64809 7.59992 1.65303 7.59992 1.65798 7.59992C1.66293 7.59992 1.6679 7.59992 1.67287 7.59992C1.67784 7.59992 1.68283 7.59992 1.68783 7.59992C1.69282 7.59992 1.69783 7.59992 1.70285 7.59992C1.70787 7.59992 1.7129 7.59992 1.71794 7.59992C1.72299 7.59992 1.72804 7.59992 1.7331 7.59992C1.73817 7.59992 1.74324 7.59992 1.74833 7.59992C1.75341 7.59992 1.75851 7.59992 1.76362 7.59992C1.76873 7.59992 1.77385 7.59992 1.77898 7.59992C1.78411 7.59992 1.78925 7.59992 1.7944 7.59992C1.79956 7.59992 1.80472 7.59992 1.80989 7.59992C1.81507 7.59992 1.82025 7.59992 1.82545 7.59992C1.83065 7.59992 1.83586 7.59992 1.84108 7.59992C1.84629 7.59992 1.85152 7.59992 1.85677 7.59992C1.86201 7.59992 1.86726 7.59992 1.87252 7.59992C1.87778 7.59992 1.88306 7.59992 1.88834 7.59992C1.89363 7.59992 1.89892 7.59992 1.90423 7.59992C1.90954 7.59992 1.91486 7.59992 1.92019 7.59992C1.92551 7.59992 1.93085 7.59992 1.93621 7.59992C1.94156 7.59992 1.94692 7.59992 1.95229 7.59992C1.95766 7.59992 1.96305 7.59992 1.96844 7.59992C1.97384 7.59992 1.97924 7.59992 1.98466 7.59992C1.99007 7.59992 1.9955 7.59992 2.00094 7.59992C2.00638 7.59992 2.01183 7.59992 2.01729 7.59992C2.02275 7.59992 2.02822 7.59992 2.0337 7.59992C2.03918 7.59992 2.04467 7.59992 2.05017 7.59992C2.05568 7.59992 2.06119 7.59992 2.06672 7.59992C2.07224 7.59992 2.07778 7.59992 2.08332 7.59992C2.08887 7.59992 2.09443 7.59992 2.1 7.59992C2.10556 7.59992 2.11114 7.59992 2.11673 7.59992C2.12232 7.59992 2.12792 7.59992 2.13353 7.59992C2.13915 7.59992 2.14477 7.59992 2.1504 7.59992C2.15603 7.59992 2.16168 7.59992 2.16733 7.59992C2.17299 7.59992 2.17865 7.59992 2.18433 7.59992C2.19 7.59992 2.19569 7.59992 2.20139 7.59992C2.20708 7.59992 2.21279 7.59992 2.21851 7.59992C2.22423 7.59992 2.22996 7.59992 2.2357 7.59992C2.24144 7.59992 2.24719 7.59992 2.25295 7.59992C2.25871 7.59992 2.26448 7.59992 2.27027 7.59992C2.27605 7.59992 2.28184 7.59992 2.28765 7.59992C2.29345 7.59992 2.29927 7.59992 2.30509 7.59992C2.31092 7.59992 2.31675 7.59992 2.3226 7.59992C2.32844 7.59992 2.3343 7.59992 2.34017 7.59992C2.34604 7.59992 2.35192 7.59992 2.3578 7.59992C2.36369 7.59992 2.36959 7.59992 2.3755 7.59992C2.38141 7.59992 2.38733 7.59992 2.39327 7.59992C2.3992 7.59992 2.40514 7.59992 2.41109 7.59992C2.41704 7.59992 2.42301 7.59992 2.42898 7.59992C2.43495 7.59992 2.44094 7.59992 2.44693 7.59992C2.45293 7.59992 2.45893 7.59992 2.46495 7.59992C2.47096 7.59992 2.47699 7.59992 2.48302 7.59992C2.48906 7.59992 2.49511 7.59992 2.50116 7.59992C2.50722 7.59992 2.51329 7.59992 2.51937 7.59992C2.52545 7.59992 2.53153 7.59992 2.53763 7.59992C2.54373 7.59992 2.54984 7.59992 2.55596 7.59992C2.56208 7.59992 2.56821 7.59992 2.57435 7.59992C2.5805 7.59992 2.58665 7.59992 2.59281 7.59992C2.59897 7.59992 2.60514 7.59992 2.61133 7.59992C2.61751 7.59992 2.6237 7.59992 2.6299 7.59992C2.63611 7.59992 2.64232 7.59992 2.64854 7.59992C2.65477 7.59992 2.661 7.59992 2.66725 7.59992C2.67349 7.59992 2.67975 7.59992 2.68601 7.59992C2.69228 7.59992 2.69855 7.59992 2.70484 7.59992C2.71113 7.59992 2.71742 7.59992 2.72373 7.59992C2.73004 7.59992 2.73635 7.59992 2.74268 7.59992C2.74901 7.59992 2.75535 7.59992 2.76169 7.59992C2.76804 7.59992 2.7744 7.59992 2.78077 7.59992C2.78714 7.59992 2.79351 7.59992 2.7999 7.59992C2.80629 7.59992 2.81269 7.59992 2.8191 7.59992C2.82551 7.59992 2.83193 7.59992 2.83836 7.59992C2.84479 7.59992 2.85123 7.59992 2.85768 7.59992C2.86413 7.59992 2.87059 7.59992 2.87706 7.59992C2.88353 7.59992 2.89001 7.59992 2.8965 7.59992C2.90299 7.59992 2.9095 7.59992 2.91601 7.59992C2.92252 7.59992 2.92904 7.59992 2.93557 7.59992C2.9421 7.59992 2.94864 7.59992 2.9552 7.59992C2.96175 7.59992 2.96831 7.59992 2.97488 7.59992C2.98145 7.59992 2.98804 7.59992 2.99463 7.59992C3.00122 7.59992 3.00782 7.59992 3.01444 7.59992C3.02105 7.59992 3.02767 7.59992 3.0343 7.59992C3.04094 7.59992 3.04758 7.59992 3.05423 7.59992C3.06089 7.59992 3.06755 7.59992 3.07422 7.59992C3.08089 7.59992 3.08758 7.59992 3.09427 7.59992C3.10096 7.59992 3.10767 7.59992 3.11438 7.59992C3.12109 7.59992 3.12782 7.59992 3.13455 7.59992C3.14128 7.59992 3.14803 7.59992 3.15478 7.59992C3.16153 7.59992 3.1683 7.59992 3.17507 7.59992C3.18184 7.59992 3.18862 7.59992 3.19542 7.59992C3.20221 7.59992 3.20901 7.59992 3.21583 7.59992C3.22264 7.59992 3.22946 7.59992 3.23629 7.59992C3.24313 7.59992 3.24997 7.59992 3.25682 7.59992C3.26368 7.59992 3.27054 7.59992 3.27741 7.59992C3.28428 7.59992 3.29117 7.59992 3.29806 7.59992C3.30495 7.59992 3.31185 7.59992 3.31876 7.59992C3.32568 7.59992 3.3326 7.59992 3.33953 7.59992C3.34646 7.59992 3.3534 7.59992 3.36036 7.59992C3.36731 7.59992 3.37427 7.59992 3.38124 7.59992C3.38821 7.59992 3.39519 7.59992 3.40218 7.59992C3.40917 7.59992 3.41617 7.59992 3.42319 7.59992C3.4302 7.59992 3.43722 7.59992 3.44425 7.59992C3.45128 7.59992 3.45832 7.59992 3.46537 7.59992C3.47242 7.59992 3.47947 7.59992 3.48654 7.59992C3.49361 7.59992 3.50069 7.59992 3.50778 7.59992C3.51487 7.59992 3.52197 7.59992 3.52908 7.59992C3.53618 7.59992 3.5433 7.59992 3.55043 7.59992C3.55756 7.59992 3.56469 7.59992 3.57184 7.59992C3.57899 7.59992 3.58615 7.59992 3.59331 7.59992C3.60048 7.59992 3.60766 7.59992 3.61484 7.59992C3.62203 7.59992 3.62922 7.59992 3.63643 7.59992C3.64363 7.59992 3.65085 7.59992 3.65807 7.59992C3.6653 7.59992 3.67253 7.59992 3.67977 7.59992C3.68702 7.59992 3.69427 7.59992 3.70153 7.59992C3.7088 7.59992 3.71607 7.59992 3.72335 7.59992C3.73064 7.59992 3.73793 7.59992 3.74523 7.59992C3.75253 7.59992 3.75984 7.59992 3.76716 7.59992C3.77448 7.59992 3.78181 7.59992 3.78915 7.59992C3.79649 7.59992 3.80384 7.59992 3.8112 7.59992C3.81856 7.59992 3.82593 7.59992 3.83331 7.59992C3.84068 7.59992 3.84807 7.59992 3.85547 7.59992C3.86287 7.59992 3.87027 7.59992 3.87769 7.59992C3.88511 7.59992 3.89253 7.59992 3.89997 7.59992C3.9074 7.59992 3.91485 7.59992 3.9223 7.59992C3.92975 7.59992 3.93722 7.59992 3.94469 7.59992C3.95216 7.59992 3.95965 7.59992 3.96714 7.59992C3.97463 7.59992 3.98213 7.59992 3.98964 7.59992C3.99715 7.59992 4.00467 7.59992 4.0122 7.59992C4.01973 7.59992 4.02727 7.59992 4.03482 7.59992C4.04237 7.59992 4.04993 7.59992 4.05749 7.59992C4.06506 7.59992 4.07264 7.59992 4.08022 7.59992C4.08781 7.59992 4.09541 7.59992 4.10301 7.59992C4.11062 7.59992 4.11823 7.59992 4.12585 7.59992C4.13348 7.59992 4.14111 7.59992 4.14875 7.59992C4.15639 7.59992 4.16405 7.59992 4.17171 7.59992C4.17937 7.59992 4.18704 7.59992 4.19472 7.59992C4.2024 7.59992 4.21009 7.59992 4.21779 7.59992C4.22548 7.59992 4.23319 7.59992 4.24091 7.59992C4.24862 7.59992 4.25635 7.59992 4.26409 7.59992C4.27182 7.59992 4.27957 7.59992 4.28732 7.59992C4.29507 7.59992 4.30284 7.59992 4.31061 7.59992C4.31838 7.59992 4.32616 7.59992 4.33395 7.59992C4.34174 7.59992 4.34954 7.59992 4.35735 7.59992C4.36516 7.59992 4.37298 7.59992 4.38081 7.59992C4.38864 7.59992 4.39647 7.59992 4.40432 7.59992C4.41217 7.59992 4.42002 7.59992 4.42789 7.59992C4.43575 7.59992 4.44362 7.59992 4.45151 7.59992C4.45939 7.59992 4.46728 7.59992 4.47518 7.59992C4.48308 7.59992 4.49099 7.59992 4.49891 7.59992C4.50683 7.59992 4.51476 7.59992 4.5227 7.59992C4.53063 7.59992 4.53858 7.59992 4.54654 7.59992C4.55449 7.59992 4.56246 7.59992 4.57043 7.59992C4.57841 7.59992 4.58639 7.59992 4.59438 7.59992C4.60237 7.59992 4.61037 7.59992 4.61838 7.59992C4.62639 7.59992 4.63441 7.59992 4.64244 7.59992C4.65047 7.59992 4.65851 7.59992 4.66655 7.59992C4.6746 7.59992 4.68266 7.59992 4.69072 7.59992C4.69878 7.59992 4.70686 7.59992 4.71494 7.59992C4.72302 7.59992 4.73111 7.59992 4.73921 7.59992C4.74731 7.59992 4.75542 7.59992 4.76354 7.59992C4.77166 7.59992 4.77979 7.59992 4.78792 7.59992C4.79606 7.59992 4.80421 7.59992 4.81236 7.59992C4.82051 7.59992 4.82868 7.59992 4.83685 7.59992C4.84502 7.59992 4.8532 7.59992 4.86139 7.59992C4.86958 7.59992 4.87778 7.59992 4.88599 7.59992C4.8942 7.59992 4.90241 7.59992 4.91064 7.59992C4.91886 7.59992 4.9271 7.59992 4.93534 7.59992C4.94358 7.59992 4.95184 7.59992 4.9601 7.59992C4.96836 7.59992 4.97663 7.59992 4.98491 7.59992C4.99319 7.59992 5.00147 7.59992 5.00977 7.59992C5.01807 7.59992 5.02637 7.59992 5.03469 7.59992C5.043 7.59992 5.05132 7.59992 5.05965 7.59992C5.06799 7.59992 5.07633 7.59992 5.08468 7.59992C5.09302 7.59992 5.10138 7.59992 5.10975 7.59992C5.11812 7.59992 5.12649 7.59992 5.13488 7.59992C5.14326 7.59992 5.15165 7.59992 5.16006 7.59992C5.16846 7.59992 5.17687 7.59992 5.18529 7.59992C5.19371 7.59992 5.20213 7.59992 5.21057 7.59992C5.21901 7.59992 5.22745 7.59992 5.23591 7.59992C5.24436 7.59992 5.25282 7.59992 5.2613 7.59992C5.26977 7.59992 5.27825 7.59992 5.28674 7.59992C5.29522 7.59992 5.30372 7.59992 5.31223 7.59992C5.32073 7.59992 5.32925 7.59992 5.33777 7.59992C5.3463 7.59992 5.35483 7.59992 5.36337 7.59992C5.37191 7.59992 5.38046 7.59992 5.38902 7.59992C5.39758 7.59992 5.40614 7.59992 5.41472 7.59992C5.42329 7.59992 5.43188 7.59992 5.44047 7.59992C5.44906 7.59992 5.45766 7.59992 5.46627 7.59992C5.47488 7.59992 5.4835 7.59992 5.49213 7.59992C5.50075 7.59992 5.50939 7.59992 5.51803 7.59992C5.52668 7.59992 5.53533 7.59992 5.54399 7.59992C5.55265 7.59992 5.56132 7.59992 5.57 7.59992C5.57868 7.59992 5.58736 7.59992 5.59606 7.59992C5.60475 7.59992 5.61346 7.59992 5.62217 7.59992C5.63088 7.59992 5.6396 7.59992 5.64833 7.59992C5.65706 7.59992 5.6658 7.59992 5.67454 7.59992C5.68329 7.59992 5.69204 7.59992 5.7008 7.59992C5.70957 7.59992 5.71834 7.59992 5.72712 7.59992C5.7359 7.59992 5.74469 7.59992 5.75348 7.59992C5.76228 7.59992 5.77108 7.59992 5.7799 7.59992C5.78871 7.59992 5.79753 7.59992 5.80636 7.59992C5.81519 7.59992 5.82403 7.59992 5.83288 7.59992C5.84173 7.59992 5.85058 7.59992 5.85944 7.59992C5.86831 7.59992 5.87718 7.59992 5.88606 7.59992C5.89494 7.59992 5.90383 7.59992 5.91273 7.59992C5.92162 7.59992 5.93053 7.59992 5.93944 7.59992C5.94836 7.59992 5.95728 7.59992 5.96621 7.59992C5.97514 7.59992 5.98408 7.59992 5.99302 7.59992C6.00197 7.59992 6.01093 7.59992 6.01989 7.59992C6.02885 7.59992 6.03782 7.59992 6.0468 7.59992C6.05578 7.59992 6.06477 7.59992 6.07377 7.59992C6.08277 7.59992 6.09177 7.59992 6.10078 7.59992C6.1098 7.59992 6.11882 7.59992 6.12785 7.59992C6.13688 7.59992 6.14591 7.59992 6.15496 7.59992C6.16401 7.59992 6.17306 7.59992 6.18212 7.59992C6.19118 7.59992 6.20026 7.59992 6.20933 7.59992C6.21841 7.59992 6.2275 7.59992 6.23659 7.59992C6.24569 7.59992 6.25479 7.59992 6.2639 7.59992C6.27302 7.59992 6.28214 7.59992 6.29126 7.59992C6.30039 7.59992 6.30953 7.59992 6.31867 7.59992C6.32781 7.59992 6.33697 7.59992 6.34613 7.59992C6.35529 7.59992 6.36445 7.59992 6.37363 7.59992C6.38281 7.59992 6.39199 7.59992 6.40118 7.59992C6.41038 7.59992 6.41958 7.59992 6.42878 7.59992C6.43799 7.59992 6.44721 7.59992 6.45643 7.59992C6.46566 7.59992 6.47489 7.59992 6.48413 7.59992C6.49337 7.59992 6.50262 7.59992 6.51188 7.59992C6.52114 7.59992 6.5304 7.59992 6.53967 7.59992C6.54895 7.59992 6.55823 7.59992 6.56752 7.59992C6.57681 7.59992 6.5861 7.59992 6.59541 7.59992C6.60471 7.59992 6.61402 7.59992 6.62335 7.59992C6.63267 7.59992 6.64199 7.59992 6.65133 7.59992C6.66067 7.59992 6.67001 7.59992 6.67937 7.59992C6.68872 7.59992 6.69808 7.59992 6.70745 7.59992C6.71682 7.59992 6.72619 7.59992 6.73558 7.59992C6.74496 7.59992 6.75435 7.59992 6.76375 7.59992C6.77315 7.59992 6.78256 7.59992 6.79198 7.59992C6.80139 7.59992 6.81082 7.59992 6.82025 7.59992C6.82968 7.59992 6.83912 7.59992 6.84857 7.59992C6.85801 7.59992 6.86747 7.59992 6.87693 7.59992C6.88639 7.59992 6.89587 7.59992 6.90534 7.59992C6.91482 7.59992 6.92431 7.59992 6.9338 7.59992C6.9433 7.59992 6.9528 7.59992 6.96231 7.59992C6.97182 7.59992 6.98134 7.59992 6.99086 7.59992C7.00039 7.59992 7.00992 7.59992 7.01946 7.59992C7.029 7.59992 7.03855 7.59992 7.04811 7.59992C7.05767 7.59992 7.06723 7.59992 7.0768 7.59992C7.08637 7.59992 7.09595 7.59992 7.10554 7.59992C7.11513 7.59992 7.12472 7.59992 7.13433 7.59992C7.14393 7.59992 7.15354 7.59992 7.16316 7.59992C7.17278 7.59992 7.1824 7.59992 7.19204 7.59992C7.20167 7.59992 7.21131 7.59992 7.22096 7.59992C7.23061 7.59992 7.24027 7.59992 7.24993 7.59992C7.2596 7.59992 7.26927 7.59992 7.27895 7.59992C7.28863 7.59992 7.29831 7.59992 7.30801 7.59992C7.3177 7.59992 7.32741 7.59992 7.33712 7.59992C7.34683 7.59992 7.35654 7.59992 7.36627 7.59992C7.376 7.59992 7.38573 7.59992 7.39547 7.59992C7.40521 7.59992 7.41496 7.59992 7.42471 7.59992C7.43447 7.59992 7.44423 7.59992 7.454 7.59992C7.46377 7.59992 7.47355 7.59992 7.48334 7.59992C7.49312 7.59992 7.50292 7.59992 7.51272 7.59992C7.52252 7.59992 7.53233 7.59992 7.54214 7.59992C7.55196 7.59992 7.56178 7.59992 7.57161 7.59992C7.58145 7.59992 7.59128 7.59992 7.60113 7.59992C7.61098 7.59992 7.62083 7.59992 7.63069 7.59992C7.64055 7.59992 7.65042 7.59992 7.6603 7.59992C7.67017 7.59992 7.68006 7.59992 7.68995 7.59992C7.69984 7.59992 7.70973 7.59992 7.71964 7.59992C7.72955 7.59992 7.73946 7.59992 7.74938 7.59992C7.7593 7.59992 7.76923 7.59992 7.77916 7.59992C7.7891 7.59992 7.79904 7.59992 7.80899 7.59992C7.81894 7.59992 7.8289 7.59992 7.83886 7.59992C7.84883 7.59992 7.8588 7.59992 7.86878 7.59992C7.87876 7.59992 7.88875 7.59992 7.89874 7.59992C7.90874 7.59992 7.91874 7.59992 7.92875 7.59992C7.93876 7.59992 7.94877 7.59992 7.9588 7.59992C7.96882 7.59992 7.97885 7.59992 7.98889 7.59992C7.99893 7.59992 8.00897 7.59992 8.01902 7.59992C8.02908 7.59992 8.03914 7.59992 8.0492 7.59992C8.05927 7.59992 8.06935 7.59992 8.07943 7.59992C8.08951 7.59992 8.0996 7.59992 8.1097 7.59992C8.11979 7.59992 8.1299 7.59992 8.14001 7.59992C8.15012 7.59992 8.16024 7.59992 8.17036 7.59992C8.18049 7.59992 8.19062 7.59992 8.20076 7.59992C8.2109 7.59992 8.22104 7.59992 8.2312 7.59992C8.24135 7.59992 8.25151 7.59992 8.26168 7.59992C8.27185 7.59992 8.28203 7.59992 8.29221 7.59992C8.30239 7.59992 8.31258 7.59992 8.32278 7.59992C8.33298 7.59992 8.34318 7.59992 8.35339 7.59992C8.3636 7.59992 8.37382 7.59992 8.38405 7.59992C8.39427 7.59992 8.4045 7.59992 8.41474 7.59992C8.42498 7.59992 8.43523 7.59992 8.44549 7.59992C8.45574 7.59992 8.466 7.59992 8.47627 7.59992C8.48654 7.59992 8.49681 7.59992 8.50709 7.59992C8.51738 7.59992 8.52767 7.59992 8.53796 7.59992C8.54826 7.59992 8.55856 7.59992 8.56887 7.59992C8.57918 7.59992 8.5895 7.59992 8.59982 7.59992C8.61015 7.59992 8.62048 7.59992 8.63082 7.59992C8.64116 7.59992 8.6515 7.59992 8.66186 7.59992C8.67221 7.59992 8.68257 7.59992 8.69293 7.59992C8.7033 7.59992 8.71367 7.59992 8.72405 7.59992C8.73443 7.59992 8.74482 7.59992 8.75522 7.59992C8.76561 7.59992 8.77601 7.59992 8.78642 7.59992C8.79683 7.59992 8.80724 7.59992 8.81767 7.59992C8.82809 7.59992 8.83852 7.59992 8.84895 7.59992C8.85939 7.59992 8.86983 7.59992 8.88028 7.59992C8.89073 7.59992 8.90119 7.59992 8.91165 7.59992C8.92211 7.59992 8.93258 7.59992 8.94306 7.59992C8.95354 7.59992 8.96402 7.59992 8.97451 7.59992C8.985 7.59992 8.9955 7.59992 9.00601 7.59992C9.01651 7.59992 9.02702 7.59992 9.03754 7.59992C9.04806 7.59992 9.05858 7.59992 9.06911 7.59992C9.07965 7.59992 9.09018 7.59992 9.10073 7.59992C9.11127 7.59992 9.12183 7.59992 9.13239 7.59992C9.14295 7.59992 9.15351 7.59992 9.16408 7.59992C9.17466 7.59992 9.18524 7.59992 9.19582 7.59992C9.20641 7.59992 9.217 7.59992 9.2276 7.59992C9.2382 7.59992 9.24881 7.59992 9.25942 7.59992C9.27003 7.59992 9.28065 7.59992 9.29128 7.59992C9.3019 7.59992 9.31254 7.59992 9.32318 7.59992C9.33382 7.59992 9.34446 7.59992 9.35511 7.59992C9.36577 7.59992 9.37643 7.59992 9.38709 7.59992C9.39776 7.59992 9.40843 7.59992 9.41911 7.59992C9.42979 7.59992 9.44048 7.59992 9.45117 7.59992C9.46187 7.59992 9.47256 7.59992 9.48327 7.59992C9.49398 7.59992 9.50469 7.59992 9.51541 7.59992C9.52613 7.59992 9.53686 7.59992 9.54759 7.59992C9.55832 7.59992 9.56906 7.59992 9.57981 7.59992C9.59055 7.59992 9.6013 7.59992 9.61206 7.59992C9.62282 7.59992 9.63359 7.59992 9.64436 7.59992C9.65513 7.59992 9.66591 7.59992 9.6767 7.59992C9.68748 7.59992 9.69827 7.59992 9.70907 7.59992C9.71987 7.59992 9.73067 7.59992 9.74148 7.59992C9.7523 7.59992 9.76311 7.59992 9.77394 7.59992C9.78476 7.59992 9.79559 7.59992 9.80643 7.59992C9.81727 7.59992 9.82811 7.59992 9.83896 7.59992C9.84981 7.59992 9.86067 7.59992 9.87153 7.59992C9.88239 7.59992 9.89326 7.59992 9.90414 7.59992C9.91502 7.59992 9.9259 7.59992 9.93679 7.59992C9.94768 7.59992 9.95857 7.59992 9.96947 7.59992C9.98037 7.59992 9.99128 7.59992 10.0022 7.59992C10.0131 7.59992 10.024 7.59992 10.035 7.59992C10.0459 7.59992 10.0568 7.59992 10.0678 7.59992C10.0787 7.59992 10.0896 7.59992 10.1006 7.59992C10.1116 7.59992 10.1225 7.59992 10.1335 7.59992C10.1444 7.59992 10.1554 7.59992 10.1664 7.59992C10.1774 7.59992 10.1884 7.59992 10.1993 7.59992C10.2103 7.59992 10.2213 7.59992 10.2323 7.59992C10.2433 7.59992 10.2543 7.59992 10.2654 7.59992C10.2764 7.59992 10.2874 7.59992 10.2984 7.59992C10.3095 7.59992 10.3205 7.59992 10.3315 7.59992C10.3426 7.59992 10.3536 7.59992 10.3647 7.59992C10.3757 7.59992 10.3868 7.59992 10.3979 7.59992C10.4089 7.59992 10.42 7.59992 10.4311 7.59992C10.4421 7.59992 10.4532 7.59992 10.4643 7.59992C10.4754 7.59992 10.4865 7.59992 10.4976 7.59992C10.5087 7.59992 10.5198 7.59992 10.5309 7.59992C10.5421 7.59992 10.5532 7.59992 10.5643 7.59992C10.5754 7.59992 10.5866 7.59992 10.5977 7.59992C10.6088 7.59992 10.62 7.59992 10.6311 7.59992C10.6423 7.59992 10.6535 7.59992 10.6646 7.59992C10.6758 7.59992 10.687 7.59992 10.6981 7.59992C10.7093 7.59992 10.7205 7.59992 10.7317 7.59992C10.7429 7.59992 10.7541 7.59992 10.7653 7.59992C10.7765 7.59992 10.7877 7.59992 10.7989 7.59992C10.8101 7.59992 10.8213 7.59992 10.8325 7.59992C10.8438 7.59992 10.855 7.59992 10.8662 7.59992C10.8775 7.59992 10.8887 7.59992 10.9 7.59992C10.9112 7.59992 10.9225 7.59992 10.9337 7.59992C10.945 7.59992 10.9563 7.59992 10.9675 7.59992C10.9788 7.59992 10.9901 7.59992 11.0014 7.59992C11.0127 7.59992 11.024 7.59992 11.0352 7.59992C11.0465 7.59992 11.0578 7.59992 11.0692 7.59992C11.0805 7.59992 11.0918 7.59992 11.1031 7.59992C11.1144 7.59992 11.1257 7.59992 11.1371 7.59992C11.1484 7.59992 11.1598 7.59992 11.1711 7.59992C11.1824 7.59992 11.1938 7.59992 11.2051 7.59992C11.2165 7.59992 11.2279 7.59992 11.2392 7.59992C11.2506 7.59992 11.262 7.59992 11.2734 7.59992C11.2847 7.59992 11.2961 7.59992 11.3075 7.59992C11.3189 7.59992 11.3303 7.59992 11.3417 7.59992C11.3531 7.59992 11.3645 7.59992 11.3759 7.59992C11.3873 7.59992 11.3988 7.59992 11.4102 7.59992C11.4216 7.59992 11.4331 7.59992 11.4445 7.59992C11.4559 7.59992 11.4674 7.59992 11.4788 7.59992C11.4903 7.59992 11.5017 7.59992 11.5132 7.59992C11.5247 7.59992 11.5361 7.59992 11.5476 7.59992C11.5591 7.59992 11.5705 7.59992 11.582 7.59992C11.5935 7.59992 11.605 7.59992 11.6165 7.59992C11.628 7.59992 11.6395 7.59992 11.651 7.59992C11.6625 7.59992 11.674 7.59992 11.6855 7.59992C11.6971 7.59992 11.7086 7.59992 11.7201 7.59992C11.7316 7.59992 11.7432 7.59992 11.7547 7.59992C11.7663 7.59992 11.7778 7.59992 11.7894 7.59992C11.8009 7.59992 11.8125 7.59992 11.824 7.59992C11.8356 7.59992 11.8472 7.59992 11.8587 7.59992C11.8703 7.59992 11.8819 7.59992 11.8935 7.59992C11.9051 7.59992 11.9167 7.59992 11.9283 7.59992C11.9398 7.59992 11.9514 7.59992 11.9631 7.59992C11.9747 7.59992 11.9863 7.59992 11.9979 7.59992C12.0095 7.59992 12.0211 7.59992 12.0328 7.59992C12.0444 7.59992 12.056 7.59992 12.0677 7.59992C12.0793 7.59992 12.091 7.59992 12.1026 7.59992C12.1143 7.59992 12.1259 7.59992 12.1376 7.59992C12.1493 7.59992 12.1609 7.59992 12.1726 7.59992C12.1843 7.59992 12.196 7.59992 12.2076 7.59992C12.2193 7.59992 12.231 7.59992 12.2427 7.59992C12.2544 7.59992 12.2661 7.59992 12.2778 7.59992C12.2895 7.59992 12.3012 7.59992 12.313 7.59992C12.3247 7.59992 12.3364 7.59992 12.3481 7.59992C12.3599 7.59992 12.3716 7.59992 12.3833 7.59992C12.3951 7.59992 12.4068 7.59992 12.4186 7.59992C12.4303 7.59992 12.4421 7.59992 12.4538 7.59992C12.4656 7.59992 12.4774 7.59992 12.4891 7.59992C12.5009 7.59992 12.5127 7.59992 12.5245 7.59992C12.5363 7.59992 12.548 7.59992 12.5598 7.59992C12.5716 7.59992 12.5834 7.59992 12.5952 7.59992C12.607 7.59992 12.6189 7.59992 12.6307 7.59992C12.6425 7.59992 12.6543 7.59992 12.6661 7.59992C12.678 7.59992 12.6898 7.59992 12.7016 7.59992C12.7135 7.59992 12.7253 7.59992 12.7371 7.59992C12.749 7.59992 12.7608 7.59992 12.7727 7.59992C12.7846 7.59992 12.7964 7.59992 12.8083 7.59992C12.8202 7.59992 12.832 7.59992 12.8439 7.59992C12.8558 7.59992 12.8677 7.59992 12.8796 7.59992C12.8914 7.59992 12.9033 7.59992 12.9152 7.59992C12.9271 7.59992 12.939 7.59992 12.9509 7.59992C12.9629 7.59992 12.9748 7.59992 12.9867 7.59992C12.9986 7.59992 13.0105 7.59992 13.0225 7.59992C13.0344 7.59992 13.0463 7.59992 13.0583 7.59992C13.0702 7.59992 13.0822 7.59992 13.0941 7.59992C13.1061 7.59992 13.118 7.59992 13.13 7.59992C13.1419 7.59992 13.1539 7.59992 13.1659 7.59992C13.1778 7.59992 13.1898 7.59992 13.2018 7.59992C13.2138 7.59992 13.2258 7.59992 13.2378 7.59992C13.2497 7.59992 13.2617 7.59992 13.2737 7.59992C13.2857 7.59992 13.2977 7.59992 13.3098 7.59992C13.3218 7.59992 13.3338 7.59992 13.3458 7.59992C13.3578 7.59992 13.3699 7.59992 13.3819 7.59992C13.3939 7.59992 13.406 7.59992 13.418 7.59992C13.43 7.59992 13.4421 7.59992 13.4541 7.59992C13.4662 7.59992 13.4782 7.59992 13.4903 7.59992C13.5024 7.59992 13.5144 7.59992 13.5265 7.59992C13.5386 7.59992 13.5506 7.59992 13.5627 7.59992C13.5748 7.59992 13.5869 7.59992 13.599 7.59992C13.6111 7.59992 13.6232 7.59992 13.6353 7.59992C13.6474 7.59992 13.6595 7.59992 13.6716 7.59992C13.6837 7.59992 13.6958 7.59992 13.7079 7.59992C13.7201 7.59992 13.7322 7.59992 13.7443 7.59992C13.7564 7.59992 13.7686 7.59992 13.7807 7.59992C13.7929 7.59992 13.805 7.59992 13.8172 7.59992C13.8293 7.59992 13.8415 7.59992 13.8536 7.59992C13.8658 7.59992 13.8779 7.59992 13.8901 7.59992C13.9023 7.59992 13.9144 7.59992 13.9266 7.59992C13.9388 7.59992 13.951 7.59992 13.9632 7.59992C13.9754 7.59992 13.9876 7.59992 13.9998 7.59992C14.012 7.59992 14.0242 7.59992 14.0364 7.59992C14.0486 7.59992 14.0608 7.59992 14.073 7.59992C14.0852 7.59992 14.0974 7.59992 14.1097 7.59992C14.1219 7.59992 14.1341 7.59992 14.1463 7.59992C14.1586 7.59992 14.1708 7.59992 14.1831 7.59992C14.1953 7.59992 14.2076 7.59992 14.2198 7.59992C14.2321 7.59992 14.2443 7.59992 14.2566 7.59992C14.2689 7.59992 14.2811 7.59992 14.2934 7.59992C14.3057 7.59992 14.3179 7.59992 14.3302 7.59992C14.3425 7.59992 14.3548 7.59992 14.3671 7.59992C14.3794 7.59992 14.3917 7.59992 14.404 7.59992C14.4163 7.59992 14.4286 7.59992 14.4409 7.59992C14.4532 7.59992 14.4655 7.59992 14.4778 7.59992C14.4902 7.59992 14.5025 7.59992 14.5148 7.59992C14.5271 7.59992 14.5395 7.59992 14.5518 7.59992C14.5641 7.59992 14.5765 7.59992 14.5888 7.59992C14.6012 7.59992 14.6135 7.59992 14.6259 7.59992C14.6382 7.59992 14.6506 7.59992 14.663 7.59992C14.6753 7.59992 14.6877 7.59992 14.7001 7.59992C14.7124 7.59992 14.7248 7.59992 14.7372 7.59992C14.7496 7.59992 14.762 7.59992 14.7744 7.59992C14.7867 7.59992 14.7991 7.59992 14.8115 7.59992C14.8239 7.59992 14.8363 7.59992 14.8488 7.59992C14.8612 7.59992 14.8736 7.59992 14.886 7.59992C14.8984 7.59992 14.9108 7.59992 14.9233 7.59992C14.9357 7.59992 14.9481 7.59992 14.9606 7.59992C14.973 7.59992 14.9854 7.59992 14.9979 7.59992C15.0103 7.59992 15.0228 7.59992 15.0352 7.59992C15.0477 7.59992 15.0601 7.59992 15.0726 7.59992C15.0851 7.59992 15.0975 7.59992 15.11 7.59992C15.1225 7.59992 15.1349 7.59992 15.1474 7.59992C15.1599 7.59992 15.1724 7.59992 15.1849 7.59992C15.1974 7.59992 15.2098 7.59992 15.2223 7.59992C15.2348 7.59992 15.2473 7.59992 15.2598 7.59992C15.2724 7.59992 15.2849 7.59992 15.2974 7.59992C15.3099 7.59992 15.3224 7.59992 15.3349 7.59992C15.3474 7.59992 15.36 7.59992 15.3725 7.59992C15.385 7.59992 15.3976 7.59992 15.4101 7.59992C15.4226 7.59992 15.4352 7.59992 15.4477 7.59992C15.4603 7.59992 15.4728 7.59992 15.4854 7.59992C15.4979 7.59992 15.5105 7.59992 15.5231 7.59992C15.5356 7.59992 15.5482 7.59992 15.5608 7.59992C15.5733 7.59992 15.5859 7.59992 15.5985 7.59992C15.6111 7.59992 15.6237 7.59992 15.6363 7.59992C15.6489 7.59992 15.6614 7.59992 15.674 7.59992C15.6866 7.59992 15.6992 7.59992 15.7118 7.59992C15.7245 7.59992 15.7371 7.59992 15.7497 7.59992C15.7623 7.59992 15.7749 7.59992 15.7875 7.59992C15.8002 7.59992 15.8128 7.59992 15.8254 7.59992C15.838 7.59992 15.8507 7.59992 15.8633 7.59992C15.8759 7.59992 15.8886 7.59992 15.9012 7.59992C15.9139 7.59992 15.9265 7.59992 15.9392 7.59992C15.9518 7.59992 15.9645 7.59992 15.9772 7.59992C15.9898 7.59992 16.0025 7.59992 16.0152 7.59992C16.0278 7.59992 16.0405 7.59992 16.0532 7.59992V-0.400082ZM1.61371 -0.400082C3.01885 -0.400082 4.14282 0.740891 4.14282 2.12623H-3.85718C-3.85718 5.13936 -1.41921 7.59992 1.61371 7.59992V-0.400082ZM31.2797 7.51129C34.2407 7.47712 36.6 5.06486 36.6 2.12623H28.6C28.6 0.705219 29.7438 -0.471519 31.1874 -0.488178L31.2797 7.51129ZM31.2933 4.84714C29.7866 4.82959 28.6 3.60048 28.6 2.12623H36.6C36.6 -0.748879 34.2939 -3.11846 31.3865 -3.15232L31.2933 4.84714ZM1.35458 -3.15348C-1.54735 -3.11747 -3.85718 -0.75254 -3.85718 2.12623H4.14282C4.14282 3.60363 2.9545 4.82728 1.45385 4.8459L1.35458 -3.15348Z" fill="black" mask="url(#path-1-inside-1_3_5016)"/>
</svg>
