<svg width="33" height="4" viewBox="0 0 33 4" fill="none" xmlns="http://www.w3.org/2000/svg">
<mask id="path-1-inside-1_3_5015" fill="white">
<path d="M0.142887 2.35736C0.142887 1.57263 0.776814 0.936526 1.56154 0.936524C3.27494 0.936521 7.05304 0.936526 15.3776 0.936565C24.8557 0.936609 29.2437 0.936597 31.1825 0.936583C31.9673 0.936577 32.5995 1.57279 32.5995 2.35759C32.5995 3.14238 31.9669 3.77857 31.1821 3.77857C29.2903 3.77857 24.9814 3.77857 15.3776 3.77857C7.05207 3.77857 3.27424 3.77858 1.56109 3.7786C0.776186 3.77861 0.142886 3.14226 0.142887 2.35736Z"/>
</mask>
<path d="M0.142887 2.35736C0.142887 1.57263 0.776814 0.936526 1.56154 0.936524C3.27494 0.936521 7.05304 0.936526 15.3776 0.936565C24.8557 0.936609 29.2437 0.936597 31.1825 0.936583C31.9673 0.936577 32.5995 1.57279 32.5995 2.35759C32.5995 3.14238 31.9669 3.77857 31.1821 3.77857C29.2903 3.77857 24.9814 3.77857 15.3776 3.77857C7.05207 3.77857 3.27424 3.77858 1.56109 3.7786C0.776186 3.77861 0.142886 3.14226 0.142887 2.35736Z" fill="black"/>
<path d="M1.56109 3.7786L1.56105 -0.2214L1.56109 3.7786ZM31.1821 3.77857L31.1821 -0.221428L31.1821 3.77857ZM31.1825 0.936583L31.1824 -3.06342L31.1825 0.936583ZM1.56155 4.93652C3.27494 4.93652 7.05302 4.93653 15.3776 4.93656L15.3776 -3.06344C7.05306 -3.06347 3.27495 -3.06348 1.56153 -3.06348L1.56155 4.93652ZM15.3776 4.93656C24.8557 4.93661 29.2437 4.9366 31.1825 4.93658L31.1824 -3.06342C29.2437 -3.0634 24.8557 -3.06339 15.3776 -3.06344L15.3776 4.93656ZM31.1821 -0.221428C29.2903 -0.221427 24.9814 -0.221426 15.3776 -0.22143L15.3776 7.77857C24.9814 7.77857 29.2903 7.77857 31.1821 7.77857L31.1821 -0.221428ZM15.3776 -0.22143C7.05207 -0.221434 3.27423 -0.221417 1.56105 -0.2214L1.56113 7.7786C3.27426 7.77858 7.05206 7.77857 15.3776 7.77857L15.3776 -0.22143ZM-3.85711 2.35735C-3.85712 5.34018 -1.44414 7.77863 1.56113 7.7786L1.56105 -0.2214C2.99651 -0.221415 4.14289 0.944332 4.14289 2.35736L-3.85711 2.35735ZM28.5995 2.35759C28.5995 0.946421 29.7446 -0.221427 31.1821 -0.221428L31.1821 7.77857C34.1892 7.77857 36.5995 5.33833 36.5995 2.35759H28.5995ZM36.5995 2.35759C36.5995 -0.621595 34.1911 -3.06344 31.1824 -3.06342L31.1825 4.93658C29.7434 4.93659 28.5995 3.76717 28.5995 2.35759H36.5995ZM4.14289 2.35736C4.14289 3.77377 2.99395 4.93652 1.56155 4.93652L1.56153 -3.06348C-1.44032 -3.06347 -3.85711 -0.62851 -3.85711 2.35735L4.14289 2.35736Z" fill="black" mask="url(#path-1-inside-1_3_5015)"/>
</svg>
