<svg width="42" height="37" viewBox="0 0 42 37" fill="none" xmlns="http://www.w3.org/2000/svg">
<path d="M21.3179 4.84836C22.0272 4.84836 22.7296 4.96992 23.385 5.2061C24.0403 5.44229 24.6357 5.78847 25.1373 6.22488C25.6389 6.6613 26.0368 7.17939 26.3082 7.74959C26.5797 8.3198 26.7194 8.93093 26.7194 9.54811C26.7194 10.1653 26.5797 10.7764 26.3082 11.3466C26.0368 11.9168 25.6389 12.4349 25.1373 12.8713C24.6357 13.3078 24.0403 13.6539 23.385 13.8901C22.7296 14.1263 22.0272 14.2479 21.3179 14.2479C19.8853 14.2479 18.5114 13.7527 17.4984 12.8713C16.4855 11.99 15.9164 10.7946 15.9164 9.54811C15.9164 8.30166 16.4855 7.10626 17.4984 6.22488C18.5114 5.34351 19.8853 4.84836 21.3179 4.84836ZM21.3179 24.9902C28.9572 24.9902 37.008 28.2576 37.008 29.6899V32.1517H5.6278V29.6899C5.6278 28.2576 13.6786 24.9902 21.3179 24.9902ZM21.3179 0.596191C15.6334 0.596191 11.0293 4.60218 11.0293 9.54811C11.0293 14.4941 15.6334 18.5 21.3179 18.5C27.0023 18.5 31.6065 14.4941 31.6065 9.54811C31.6065 4.60218 27.0023 0.596191 21.3179 0.596191ZM21.3179 20.738C14.4503 20.738 0.740723 23.7369 0.740723 29.6899V36.4039H41.895V29.6899C41.895 23.7369 28.1855 20.738 21.3179 20.738Z" fill="#0D024C"/>
<path d="M21.3179 4.84836C22.0272 4.84836 22.7296 4.96992 23.385 5.2061C24.0403 5.44229 24.6357 5.78847 25.1373 6.22488C25.6389 6.6613 26.0368 7.17939 26.3082 7.74959C26.5797 8.3198 26.7194 8.93093 26.7194 9.54811C26.7194 10.1653 26.5797 10.7764 26.3082 11.3466C26.0368 11.9168 25.6389 12.4349 25.1373 12.8713C24.6357 13.3078 24.0403 13.6539 23.385 13.8901C22.7296 14.1263 22.0272 14.2479 21.3179 14.2479C19.8853 14.2479 18.5114 13.7527 17.4984 12.8713C16.4855 11.99 15.9164 10.7946 15.9164 9.54811C15.9164 8.30166 16.4855 7.10626 17.4984 6.22488C18.5114 5.34351 19.8853 4.84836 21.3179 4.84836ZM21.3179 24.9902C28.9572 24.9902 37.008 28.2576 37.008 29.6899V32.1517H5.6278V29.6899C5.6278 28.2576 13.6786 24.9902 21.3179 24.9902ZM21.3179 0.596191C15.6334 0.596191 11.0293 4.60218 11.0293 9.54811C11.0293 14.4941 15.6334 18.5 21.3179 18.5C27.0023 18.5 31.6065 14.4941 31.6065 9.54811C31.6065 4.60218 27.0023 0.596191 21.3179 0.596191ZM21.3179 20.738C14.4503 20.738 0.740723 23.7369 0.740723 29.6899V36.4039H41.895V29.6899C41.895 23.7369 28.1855 20.738 21.3179 20.738Z" stroke="#0D024C"/>
</svg>
