<svg width="9" height="5" viewBox="0 0 9 5" fill="none" xmlns="http://www.w3.org/2000/svg">
<mask id="path-1-inside-1_3_4982" fill="white">
<path d="M0 3.42857H9V4.57143H0V3.42857ZM0 0H9V1.14286H0V0Z"/>
</mask>
<path d="M0 3.42857H9V4.57143H0V3.42857ZM0 0H9V1.14286H0V0Z" fill="white"/>
<path d="M0 3.42857V-65.5714H-69V3.42857H0ZM9 3.42857H78V-65.5714H9V3.42857ZM9 4.57143V73.5714H78V4.57143H9ZM0 4.57143H-69V73.5714H0V4.57143ZM0 0V-69H-69V0H0ZM9 0H78V-69H9V0ZM9 1.14286V70.1429H78V1.14286H9ZM0 1.14286H-69V70.1429H0V1.14286ZM0 72.4286H9V-65.5714H0V72.4286ZM-60 3.42857V4.57143H78V3.42857H-60ZM9 -64.4286H0V73.5714H9V-64.4286ZM69 4.57143V3.42857H-69V4.57143H69ZM0 69H9V-69H0V69ZM-60 0V1.14286H78V0H-60ZM9 -67.8571H0V70.1429H9V-67.8571ZM69 1.14286V0H-69V1.14286H69Z" fill="white" mask="url(#path-1-inside-1_3_4982)"/>
</svg>
