<svg width="18" height="16" viewBox="0 0 18 16" fill="none" xmlns="http://www.w3.org/2000/svg">
<path d="M3.5 6.75C3.5 6.58424 3.57243 6.42527 3.70136 6.30806C3.8303 6.19085 4.00516 6.125 4.1875 6.125H6.9375V3.625C6.9375 3.45924 7.00993 3.30027 7.13886 3.18306C7.2678 3.06585 7.44266 3 7.625 3C7.80734 3 7.9822 3.06585 8.11114 3.18306C8.24007 3.30027 8.3125 3.45924 8.3125 3.625V6.125H11.0625C11.2448 6.125 11.4197 6.19085 11.5486 6.30806C11.6776 6.42527 11.75 6.58424 11.75 6.75C11.75 6.91576 11.6776 7.07473 11.5486 7.19194C11.4197 7.30915 11.2448 7.375 11.0625 7.375H8.3125V9.875C8.3125 10.0408 8.24007 10.1997 8.11114 10.3169C7.9822 10.4342 7.80734 10.5 7.625 10.5C7.44266 10.5 7.2678 10.4342 7.13886 10.3169C7.00993 10.1997 6.9375 10.0408 6.9375 9.875V7.375H4.1875C4.00516 7.375 3.8303 7.30915 3.70136 7.19194C3.57243 7.07473 3.5 6.91576 3.5 6.75ZM3.5 0.5C2.77065 0.5 2.07118 0.763392 1.55546 1.23223C1.03973 1.70107 0.75 2.33696 0.75 3V10.5C0.75 11.163 1.03973 11.7989 1.55546 12.2678C2.07118 12.7366 2.77065 13 3.5 13H11.75C12.4793 13 13.1788 12.7366 13.6945 12.2678C14.2103 11.7989 14.5 11.163 14.5 10.5V3C14.5 2.33696 14.2103 1.70107 13.6945 1.23223C13.1788 0.763392 12.4793 0.5 11.75 0.5H3.5ZM2.125 3C2.125 2.66848 2.26987 2.35054 2.52773 2.11612C2.78559 1.8817 3.13533 1.75 3.5 1.75H11.75C12.1147 1.75 12.4644 1.8817 12.7223 2.11612C12.9801 2.35054 13.125 2.66848 13.125 3V10.5C13.125 10.8315 12.9801 11.1495 12.7223 11.3839C12.4644 11.6183 12.1147 11.75 11.75 11.75H3.5C3.13533 11.75 2.78559 11.6183 2.52773 11.3839C2.26987 11.1495 2.125 10.8315 2.125 10.5V3ZM12.4375 14.25C13.3492 14.25 14.2235 13.9208 14.8682 13.3347C15.5128 12.7487 15.875 11.9538 15.875 11.125V2.085C16.293 2.30442 16.6402 2.62 16.8816 3.00004C17.1229 3.38007 17.25 3.81117 17.25 4.25V11.125C17.25 12.2853 16.743 13.3981 15.8405 14.2186C14.9379 15.0391 13.7139 15.5 12.4375 15.5H4.875C4.39229 15.5 3.91808 15.3845 3.50004 15.165C3.082 14.9456 2.73486 14.63 2.4935 14.25H12.4375Z" fill="#F8F8F8"/>
</svg>
