<svg width="17" height="16" viewBox="0 0 17 16" fill="none" xmlns="http://www.w3.org/2000/svg">
<mask id="path-1-inside-1_3_4972" fill="white">
<path d="M8.5 3.55556C8.68786 3.55556 8.86803 3.62579 9.00087 3.75082C9.13371 3.87584 9.20833 4.04541 9.20833 4.22222V7.33333H12.5139C12.7017 7.33333 12.8819 7.40357 13.0148 7.5286C13.1476 7.65362 13.2222 7.82319 13.2222 8C13.2222 8.17681 13.1476 8.34638 13.0148 8.4714C12.8819 8.59643 12.7017 8.66667 12.5139 8.66667H9.20833V11.7778C9.20833 11.9546 9.13371 12.1242 9.00087 12.2492C8.86803 12.3742 8.68786 12.4444 8.5 12.4444C8.31214 12.4444 8.13197 12.3742 7.99913 12.2492C7.86629 12.1242 7.79167 11.9546 7.79167 11.7778V8.66667H4.48611C4.29825 8.66667 4.11808 8.59643 3.98524 8.4714C3.85241 8.34638 3.77778 8.17681 3.77778 8C3.77778 7.82319 3.85241 7.65362 3.98524 7.5286C4.11808 7.40357 4.29825 7.33333 4.48611 7.33333H7.79167V4.22222C7.79167 4.04541 7.86629 3.87584 7.99913 3.75082C8.13197 3.62579 8.31214 3.55556 8.5 3.55556ZM0 2.88889C0 2.12271 0.323387 1.38791 0.899019 0.846136C1.47465 0.304364 2.25538 0 3.06944 0H13.9306C14.7446 0 15.5253 0.304364 16.101 0.846136C16.6766 1.38791 17 2.12271 17 2.88889V13.1111C17 13.8773 16.6766 14.6121 16.101 15.1539C15.5253 15.6956 14.7446 16 13.9306 16H3.06944C2.25538 16 1.47465 15.6956 0.899019 15.1539C0.323387 14.6121 0 13.8773 0 13.1111V2.88889ZM3.06944 1.33333C2.6311 1.33333 2.21071 1.49722 1.90075 1.78895C1.5908 2.08067 1.41667 2.47633 1.41667 2.88889V13.1111C1.41667 13.9698 2.15711 14.6667 3.06944 14.6667H13.9306C14.3689 14.6667 14.7893 14.5028 15.0992 14.2111C15.4092 13.9193 15.5833 13.5237 15.5833 13.1111V2.88889C15.5833 2.47633 15.4092 2.08067 15.0992 1.78895C14.7893 1.49722 14.3689 1.33333 13.9306 1.33333H3.06944Z"/>
</mask>
<path d="M8.5 3.55556C8.68786 3.55556 8.86803 3.62579 9.00087 3.75082C9.13371 3.87584 9.20833 4.04541 9.20833 4.22222V7.33333H12.5139C12.7017 7.33333 12.8819 7.40357 13.0148 7.5286C13.1476 7.65362 13.2222 7.82319 13.2222 8C13.2222 8.17681 13.1476 8.34638 13.0148 8.4714C12.8819 8.59643 12.7017 8.66667 12.5139 8.66667H9.20833V11.7778C9.20833 11.9546 9.13371 12.1242 9.00087 12.2492C8.86803 12.3742 8.68786 12.4444 8.5 12.4444C8.31214 12.4444 8.13197 12.3742 7.99913 12.2492C7.86629 12.1242 7.79167 11.9546 7.79167 11.7778V8.66667H4.48611C4.29825 8.66667 4.11808 8.59643 3.98524 8.4714C3.85241 8.34638 3.77778 8.17681 3.77778 8C3.77778 7.82319 3.85241 7.65362 3.98524 7.5286C4.11808 7.40357 4.29825 7.33333 4.48611 7.33333H7.79167V4.22222C7.79167 4.04541 7.86629 3.87584 7.99913 3.75082C8.13197 3.62579 8.31214 3.55556 8.5 3.55556ZM0 2.88889C0 2.12271 0.323387 1.38791 0.899019 0.846136C1.47465 0.304364 2.25538 0 3.06944 0H13.9306C14.7446 0 15.5253 0.304364 16.101 0.846136C16.6766 1.38791 17 2.12271 17 2.88889V13.1111C17 13.8773 16.6766 14.6121 16.101 15.1539C15.5253 15.6956 14.7446 16 13.9306 16H3.06944C2.25538 16 1.47465 15.6956 0.899019 15.1539C0.323387 14.6121 0 13.8773 0 13.1111V2.88889ZM3.06944 1.33333C2.6311 1.33333 2.21071 1.49722 1.90075 1.78895C1.5908 2.08067 1.41667 2.47633 1.41667 2.88889V13.1111C1.41667 13.9698 2.15711 14.6667 3.06944 14.6667H13.9306C14.3689 14.6667 14.7893 14.5028 15.0992 14.2111C15.4092 13.9193 15.5833 13.5237 15.5833 13.1111V2.88889C15.5833 2.47633 15.4092 2.08067 15.0992 1.78895C14.7893 1.49722 14.3689 1.33333 13.9306 1.33333H3.06944Z" fill="white"/>
<path d="M9.20833 7.33333H-59.7917V76.3333H9.20833V7.33333ZM9.20833 8.66667V-60.3333H-59.7917V8.66667H9.20833ZM7.79167 8.66667H76.7917V-60.3333H7.79167V8.66667ZM7.79167 7.33333V76.3333H76.7917V7.33333H7.79167ZM3.06944 0V-69V0ZM17 13.1111H86H17ZM3.06944 16V85V16ZM0 13.1111H-69H0ZM8.5 72.5556C-8.30781 72.5556 -25.2059 66.3104 -38.2893 53.9966L56.291 -46.495C42.9419 -59.0588 25.6835 -65.4444 8.5 -65.4444V72.5556ZM-38.2893 53.9966C-51.5145 41.5494 -59.7917 23.7417 -59.7917 4.22222H78.2083C78.2083 -15.6509 69.7819 -33.7977 56.291 -46.495L-38.2893 53.9966ZM-59.7917 4.22222V7.33333H78.2083V4.22222H-59.7917ZM9.20833 76.3333H12.5139V-61.6667H9.20833V76.3333ZM12.5139 76.3333C-4.29394 76.3333 -21.192 70.0882 -34.2754 57.7744L60.3049 -42.7172C46.9558 -55.2811 29.6974 -61.6667 12.5139 -61.6667V76.3333ZM-34.2754 57.7744C-47.5007 45.327 -55.7778 27.5193 -55.7778 8H82.2222C82.2222 -11.8729 73.7959 -30.0198 60.3049 -42.7172L-34.2754 57.7744ZM-55.7778 8C-55.7778 -11.5193 -47.5007 -29.327 -34.2754 -41.7744L60.3049 58.7172C73.7959 46.0198 82.2222 27.8729 82.2222 8H-55.7778ZM-34.2754 -41.7744C-21.192 -54.0882 -4.29394 -60.3333 12.5139 -60.3333V77.6667C29.6974 77.6667 46.9558 71.2811 60.3049 58.7172L-34.2754 -41.7744ZM12.5139 -60.3333H9.20833V77.6667H12.5139V-60.3333ZM-59.7917 8.66667V11.7778H78.2083V8.66667H-59.7917ZM-59.7917 11.7778C-59.7917 -7.74165 -51.5145 -25.5493 -38.2893 -37.9966L56.291 62.495C69.7819 49.7977 78.2083 31.6508 78.2083 11.7778H-59.7917ZM-38.2893 -37.9966C-25.2058 -50.3105 -8.3077 -56.5556 8.5 -56.5556V81.4444C25.6834 81.4444 42.9418 75.0589 56.291 62.495L-38.2893 -37.9966ZM8.5 -56.5556C25.3077 -56.5556 42.2058 -50.3105 55.2893 -37.9966L-39.291 62.495C-25.9418 75.0589 -8.68342 81.4444 8.5 81.4444V-56.5556ZM55.2893 -37.9966C68.5145 -25.5493 76.7917 -7.74165 76.7917 11.7778H-61.2083C-61.2083 31.6508 -52.7819 49.7977 -39.291 62.495L55.2893 -37.9966ZM76.7917 11.7778V8.66667H-61.2083V11.7778H76.7917ZM7.79167 -60.3333H4.48611V77.6667H7.79167V-60.3333ZM4.48611 -60.3333C21.294 -60.3333 38.192 -54.0882 51.2754 -41.7744L-43.3049 58.7172C-29.9559 71.281 -12.6975 77.6667 4.48611 77.6667V-60.3333ZM51.2754 -41.7744C64.5006 -29.3271 72.7778 -11.5194 72.7778 8H-65.2222C-65.2222 27.873 -56.7958 46.0199 -43.3049 58.7172L51.2754 -41.7744ZM72.7778 8C72.7778 27.5194 64.5006 45.3271 51.2754 57.7744L-43.3049 -42.7172C-56.7958 -30.0199 -65.2222 -11.873 -65.2222 8H72.7778ZM51.2754 57.7744C38.192 70.0882 21.294 76.3333 4.48611 76.3333V-61.6667C-12.6975 -61.6667 -29.9559 -55.281 -43.3049 -42.7172L51.2754 57.7744ZM4.48611 76.3333H7.79167V-61.6667H4.48611V76.3333ZM76.7917 7.33333V4.22222H-61.2083V7.33333H76.7917ZM76.7917 4.22222C76.7917 23.7417 68.5145 41.5494 55.2893 53.9966L-39.291 -46.495C-52.7819 -33.7977 -61.2083 -15.6509 -61.2083 4.22222H76.7917ZM55.2893 53.9966C42.2059 66.3104 25.3078 72.5556 8.5 72.5556V-65.4444C-8.68353 -65.4444 -25.9419 -59.0588 -39.291 -46.495L55.2893 53.9966ZM69 2.88889C69 21.8189 60.9716 39.0614 48.1892 51.0919L-46.3911 -49.3997C-60.3249 -36.2856 -69 -17.5735 -69 2.88889H69ZM48.1892 51.0919C35.5485 62.989 19.251 69 3.06944 69V-69C-14.7403 -69 -32.5992 -62.3803 -46.3911 -49.3997L48.1892 51.0919ZM3.06944 69H13.9306V-69H3.06944V69ZM13.9306 69C-2.25101 69 -18.5485 62.989 -31.1892 51.0919L63.3911 -49.3997C49.5992 -62.3803 31.7403 -69 13.9306 -69V69ZM-31.1892 51.0919C-43.9717 39.0614 -52 21.8189 -52 2.88889H86C86 -17.5735 77.3249 -36.2855 63.3911 -49.3997L-31.1892 51.0919ZM-52 2.88889V13.1111H86V2.88889H-52ZM-52 13.1111C-52 -5.81886 -43.9717 -23.0614 -31.1892 -35.0919L63.3911 65.3997C77.3249 52.2855 86 33.5734 86 13.1111H-52ZM-31.1892 -35.0919C-18.5485 -46.989 -2.25099 -53 13.9306 -53V85C31.7402 85 49.5992 78.3803 63.3911 65.3997L-31.1892 -35.0919ZM13.9306 -53H3.06944V85H13.9306V-53ZM3.06944 -53C19.251 -53 35.5485 -46.989 48.1892 -35.0919L-46.3911 65.3997C-32.5992 78.3803 -14.7402 85 3.06944 85V-53ZM48.1892 -35.0919C60.9717 -23.0614 69 -5.81889 69 13.1111H-69C-69 33.5735 -60.3249 52.2856 -46.3911 65.3997L48.1892 -35.0919ZM69 13.1111V2.88889H-69V13.1111H69ZM3.06944 -67.6667C-14.3646 -67.6667 -31.8632 -61.1874 -45.3894 -48.4569L49.1909 52.0347C36.2846 64.1819 19.6268 70.3333 3.06944 70.3333V-67.6667ZM-45.3894 -48.4569C-59.0574 -35.5928 -67.5833 -17.2199 -67.5833 2.88889H70.4167C70.4167 22.1725 62.239 39.7542 49.1909 52.0347L-45.3894 -48.4569ZM-67.5833 2.88889V13.1111H70.4167V2.88889H-67.5833ZM-67.5833 13.1111C-67.5833 55.9586 -31.95 83.6667 3.06944 83.6667V-54.3333C36.2642 -54.3333 70.4167 -28.019 70.4167 13.1111H-67.5833ZM3.06944 83.6667H13.9306V-54.3333H3.06944V83.6667ZM13.9306 83.6667C31.3646 83.6667 48.8632 77.1874 62.3894 64.4569L-32.1909 -36.0347C-19.2846 -48.1818 -2.62683 -54.3333 13.9306 -54.3333V83.6667ZM62.3894 64.4569C76.0574 51.5929 84.5833 33.22 84.5833 13.1111H-53.4167C-53.4167 -6.17261 -45.239 -23.7542 -32.1909 -36.0347L62.3894 64.4569ZM84.5833 13.1111V2.88889H-53.4167V13.1111H84.5833ZM84.5833 2.88889C84.5833 -17.2199 76.0574 -35.5929 62.3894 -48.4569L-32.1909 52.0347C-45.239 39.7542 -53.4167 22.1726 -53.4167 2.88889H84.5833ZM62.3894 -48.4569C48.8632 -61.1874 31.3646 -67.6667 13.9306 -67.6667V70.3333C-2.62679 70.3333 -19.2846 64.1819 -32.1909 52.0347L62.3894 -48.4569ZM13.9306 -67.6667H3.06944V70.3333H13.9306V-67.6667Z" fill="white" mask="url(#path-1-inside-1_3_4972)"/>
</svg>
