<svg width="17" height="16" viewBox="0 0 17 16" fill="none" xmlns="http://www.w3.org/2000/svg">
<mask id="path-1-inside-1_3_4969" fill="white">
<path d="M2.75 6.75C2.75 6.58424 2.82243 6.42527 2.95136 6.30806C3.0803 6.19085 3.25516 6.125 3.4375 6.125H6.1875V3.625C6.1875 3.45924 6.25993 3.30027 6.38886 3.18306C6.5178 3.06585 6.69266 3 6.875 3C7.05734 3 7.2322 3.06585 7.36114 3.18306C7.49007 3.30027 7.5625 3.45924 7.5625 3.625V6.125H10.3125C10.4948 6.125 10.6697 6.19085 10.7986 6.30806C10.9276 6.42527 11 6.58424 11 6.75C11 6.91576 10.9276 7.07473 10.7986 7.19194C10.6697 7.30915 10.4948 7.375 10.3125 7.375H7.5625V9.875C7.5625 10.0408 7.49007 10.1997 7.36114 10.3169C7.2322 10.4342 7.05734 10.5 6.875 10.5C6.69266 10.5 6.5178 10.4342 6.38886 10.3169C6.25993 10.1997 6.1875 10.0408 6.1875 9.875V7.375H3.4375C3.25516 7.375 3.0803 7.30915 2.95136 7.19194C2.82243 7.07473 2.75 6.91576 2.75 6.75ZM2.75 0.5C2.02065 0.5 1.32118 0.763392 0.805456 1.23223C0.289731 1.70107 0 2.33696 0 3V10.5C0 11.163 0.289731 11.7989 0.805456 12.2678C1.32118 12.7366 2.02065 13 2.75 13H11C11.7293 13 12.4288 12.7366 12.9445 12.2678C13.4603 11.7989 13.75 11.163 13.75 10.5V3C13.75 2.33696 13.4603 1.70107 12.9445 1.23223C12.4288 0.763392 11.7293 0.5 11 0.5H2.75ZM1.375 3C1.375 2.66848 1.51987 2.35054 1.77773 2.11612C2.03559 1.8817 2.38533 1.75 2.75 1.75H11C11.3647 1.75 11.7144 1.8817 11.9723 2.11612C12.2301 2.35054 12.375 2.66848 12.375 3V10.5C12.375 10.8315 12.2301 11.1495 11.9723 11.3839C11.7144 11.6183 11.3647 11.75 11 11.75H2.75C2.38533 11.75 2.03559 11.6183 1.77773 11.3839C1.51987 11.1495 1.375 10.8315 1.375 10.5V3ZM11.6875 14.25C12.5992 14.25 13.4735 13.9208 14.1182 13.3347C14.7628 12.7487 15.125 11.9538 15.125 11.125V2.085C15.543 2.30442 15.8902 2.62 16.1316 3.00004C16.3729 3.38007 16.5 3.81117 16.5 4.25V11.125C16.5 12.2853 15.993 13.3981 15.0905 14.2186C14.1879 15.0391 12.9639 15.5 11.6875 15.5H4.125C3.64229 15.5 3.16808 15.3845 2.75004 15.165C2.332 14.9456 1.98486 14.63 1.7435 14.25H11.6875Z"/>
</mask>
<path d="M2.75 6.75C2.75 6.58424 2.82243 6.42527 2.95136 6.30806C3.0803 6.19085 3.25516 6.125 3.4375 6.125H6.1875V3.625C6.1875 3.45924 6.25993 3.30027 6.38886 3.18306C6.5178 3.06585 6.69266 3 6.875 3C7.05734 3 7.2322 3.06585 7.36114 3.18306C7.49007 3.30027 7.5625 3.45924 7.5625 3.625V6.125H10.3125C10.4948 6.125 10.6697 6.19085 10.7986 6.30806C10.9276 6.42527 11 6.58424 11 6.75C11 6.91576 10.9276 7.07473 10.7986 7.19194C10.6697 7.30915 10.4948 7.375 10.3125 7.375H7.5625V9.875C7.5625 10.0408 7.49007 10.1997 7.36114 10.3169C7.2322 10.4342 7.05734 10.5 6.875 10.5C6.69266 10.5 6.5178 10.4342 6.38886 10.3169C6.25993 10.1997 6.1875 10.0408 6.1875 9.875V7.375H3.4375C3.25516 7.375 3.0803 7.30915 2.95136 7.19194C2.82243 7.07473 2.75 6.91576 2.75 6.75ZM2.75 0.5C2.02065 0.5 1.32118 0.763392 0.805456 1.23223C0.289731 1.70107 0 2.33696 0 3V10.5C0 11.163 0.289731 11.7989 0.805456 12.2678C1.32118 12.7366 2.02065 13 2.75 13H11C11.7293 13 12.4288 12.7366 12.9445 12.2678C13.4603 11.7989 13.75 11.163 13.75 10.5V3C13.75 2.33696 13.4603 1.70107 12.9445 1.23223C12.4288 0.763392 11.7293 0.5 11 0.5H2.75ZM1.375 3C1.375 2.66848 1.51987 2.35054 1.77773 2.11612C2.03559 1.8817 2.38533 1.75 2.75 1.75H11C11.3647 1.75 11.7144 1.8817 11.9723 2.11612C12.2301 2.35054 12.375 2.66848 12.375 3V10.5C12.375 10.8315 12.2301 11.1495 11.9723 11.3839C11.7144 11.6183 11.3647 11.75 11 11.75H2.75C2.38533 11.75 2.03559 11.6183 1.77773 11.3839C1.51987 11.1495 1.375 10.8315 1.375 10.5V3ZM11.6875 14.25C12.5992 14.25 13.4735 13.9208 14.1182 13.3347C14.7628 12.7487 15.125 11.9538 15.125 11.125V2.085C15.543 2.30442 15.8902 2.62 16.1316 3.00004C16.3729 3.38007 16.5 3.81117 16.5 4.25V11.125C16.5 12.2853 15.993 13.3981 15.0905 14.2186C14.1879 15.0391 12.9639 15.5 11.6875 15.5H4.125C3.64229 15.5 3.16808 15.3845 2.75004 15.165C2.332 14.9456 1.98486 14.63 1.7435 14.25H11.6875Z" fill="#F8F8F8"/>
<path d="M2.75 6.75H71.75H2.75ZM6.1875 6.125V75.125H75.1875V6.125H6.1875ZM6.875 3V72V3ZM7.5625 6.125H-61.4375V75.125H7.5625V6.125ZM7.5625 7.375V-61.625H-61.4375V7.375H7.5625ZM6.1875 7.375H75.1875V-61.625H6.1875V7.375ZM2.75 0.5V-68.5V0.5ZM0 3H-69H0ZM0 10.5H-69H0ZM2.75 1.75V-67.25V1.75ZM11 1.75V-67.25V1.75ZM1.375 10.5H-67.625H1.375ZM15.125 2.085L47.192 -59.0109L-53.875 -112.057V2.085H15.125ZM16.5 4.25H85.5V4.24807L16.5 4.25ZM16.5 11.125H-52.5H16.5ZM11.6875 15.5V84.5V15.5ZM4.125 15.5L4.12341 84.5H4.125V15.5ZM1.7435 14.25V-54.75H-123.816L-56.5028 51.2414L1.7435 14.25ZM71.75 6.75C71.75 27.1214 62.7896 45.1605 49.3658 57.3639L-43.4631 -44.7478C-57.1447 -32.31 -66.25 -13.9529 -66.25 6.75H71.75ZM49.3658 57.3639C36.1608 69.3684 19.545 75.125 3.4375 75.125V-62.875C-13.0347 -62.875 -30.0003 -56.9867 -43.4631 -44.7478L49.3658 57.3639ZM3.4375 75.125H6.1875V-62.875H3.4375V75.125ZM75.1875 6.125V3.625H-62.8125V6.125H75.1875ZM75.1875 3.625C75.1875 23.9964 66.2271 42.0355 52.8033 54.2389L-40.0256 -47.8728C-53.7072 -35.435 -62.8125 -17.0779 -62.8125 3.625H75.1875ZM52.8033 54.2389C39.5983 66.2434 22.9825 72 6.875 72V-66C-9.59722 -66 -26.5628 -60.1117 -40.0256 -47.8728L52.8033 54.2389ZM6.875 72C-9.23254 72 -25.8483 66.2434 -39.0533 54.2389L53.7756 -47.8728C40.3128 -60.1117 23.3472 -66 6.875 -66V72ZM-39.0533 54.2389C-52.4771 42.0355 -61.4375 23.9964 -61.4375 3.625H76.5625C76.5625 -17.0779 67.4572 -35.435 53.7756 -47.8728L-39.0533 54.2389ZM-61.4375 3.625V6.125H76.5625V3.625H-61.4375ZM7.5625 75.125H10.3125V-62.875H7.5625V75.125ZM10.3125 75.125C-5.79498 75.125 -22.4108 69.3685 -35.6158 57.3639L57.2131 -44.7478C43.7502 -56.9868 26.7847 -62.875 10.3125 -62.875V75.125ZM-35.6158 57.3639C-49.0397 45.1604 -58 27.1212 -58 6.75H80C80 -13.9527 70.8948 -32.3098 57.2131 -44.7478L-35.6158 57.3639ZM-58 6.75C-58 -13.6212 -49.0397 -31.6604 -35.6158 -43.8639L57.2131 58.2478C70.8948 45.8098 80 27.4527 80 6.75H-58ZM-35.6158 -43.8639C-22.4108 -55.8685 -5.79498 -61.625 10.3125 -61.625V76.375C26.7847 76.375 43.7502 70.4868 57.2131 58.2478L-35.6158 -43.8639ZM10.3125 -61.625H7.5625V76.375H10.3125V-61.625ZM-61.4375 7.375V9.875H76.5625V7.375H-61.4375ZM-61.4375 9.875C-61.4375 -10.4963 -52.4771 -28.5354 -39.0533 -40.7389L53.7756 61.3728C67.4573 48.9349 76.5625 30.5778 76.5625 9.875H-61.4375ZM-39.0533 -40.7389C-25.8482 -52.7435 -9.23238 -58.5 6.875 -58.5V79.5C23.3471 79.5 40.3126 73.6118 53.7756 61.3728L-39.0533 -40.7389ZM6.875 -58.5C22.9824 -58.5 39.5982 -52.7435 52.8033 -40.7389L-40.0256 61.3728C-26.5626 73.6118 -9.59706 79.5 6.875 79.5V-58.5ZM52.8033 -40.7389C66.2271 -28.5354 75.1875 -10.4963 75.1875 9.875H-62.8125C-62.8125 30.5778 -53.7073 48.9349 -40.0256 61.3728L52.8033 -40.7389ZM75.1875 9.875V7.375H-62.8125V9.875H75.1875ZM6.1875 -61.625H3.4375V76.375H6.1875V-61.625ZM3.4375 -61.625C19.545 -61.625 36.1608 -55.8684 49.3658 -43.8639L-43.4631 58.2478C-30.0003 70.4867 -13.0347 76.375 3.4375 76.375V-61.625ZM49.3658 -43.8639C62.7896 -31.6605 71.75 -13.6214 71.75 6.75H-66.25C-66.25 27.4529 -57.1447 45.81 -43.4631 58.2478L49.3658 -43.8639ZM2.75 -68.5C-14.2692 -68.5 -31.7593 -62.4142 -45.609 -49.8236L47.2199 52.2881C34.4017 63.941 18.3105 69.5 2.75 69.5V-68.5ZM-45.609 -49.8236C-59.6774 -37.0341 -69 -18.2001 -69 3H69C69 22.874 60.2569 40.4363 47.2199 52.2881L-45.609 -49.8236ZM-69 3V10.5H69V3H-69ZM-69 10.5C-69 31.7001 -59.6774 50.5341 -45.609 63.3236L47.2199 -38.7881C60.2569 -26.9363 69 -9.37405 69 10.5H-69ZM-45.609 63.3236C-31.7594 75.9142 -14.2692 82 2.75 82V-56C18.3105 -56 34.4017 -50.441 47.2199 -38.7881L-45.609 63.3236ZM2.75 82H11V-56H2.75V82ZM11 82C28.0192 82 45.5094 75.9142 59.359 63.3236L-33.4699 -38.7881C-20.6517 -50.441 -4.56053 -56 11 -56V82ZM59.359 63.3236C73.4274 50.5341 82.75 31.7002 82.75 10.5H-55.25C-55.25 -9.37409 -46.5069 -26.9363 -33.4699 -38.7881L59.359 63.3236ZM82.75 10.5V3H-55.25V10.5H82.75ZM82.75 3C82.75 -18.2002 73.4274 -37.0341 59.359 -49.8236L-33.4699 52.2881C-46.5069 40.4363 -55.25 22.8741 -55.25 3H82.75ZM59.359 -49.8236C45.5093 -62.4142 28.0192 -68.5 11 -68.5V69.5C-4.56049 69.5 -20.6517 63.941 -33.4699 52.2881L59.359 -49.8236ZM11 -68.5H2.75V69.5H11V-68.5ZM70.375 3C70.375 23.2056 61.487 41.0857 48.1922 53.172L-44.6367 -48.9397C-58.4473 -36.3846 -67.625 -17.8686 -67.625 3H70.375ZM48.1922 53.172C35.1161 65.0593 18.6751 70.75 2.75 70.75V-67.25C-13.9045 -67.25 -31.0449 -61.2959 -44.6367 -48.9397L48.1922 53.172ZM2.75 70.75H11V-67.25H2.75V70.75ZM11 70.75C-4.92517 70.75 -21.3661 65.0593 -34.4422 53.172L58.3867 -48.9397C44.7949 -61.2959 27.6545 -67.25 11 -67.25V70.75ZM-34.4422 53.172C-47.737 41.0857 -56.625 23.2056 -56.625 3H81.375C81.375 -17.8686 72.1973 -36.3847 58.3867 -48.9397L-34.4422 53.172ZM-56.625 3V10.5H81.375V3H-56.625ZM-56.625 10.5C-56.625 -9.70562 -47.737 -27.5858 -34.4422 -39.672L58.3867 62.4397C72.1973 49.8847 81.375 31.3687 81.375 10.5H-56.625ZM-34.4422 -39.672C-21.3661 -51.5593 -4.92521 -57.25 11 -57.25V80.75C27.6546 80.75 44.795 74.7959 58.3867 62.4397L-34.4422 -39.672ZM11 -57.25H2.75V80.75H11V-57.25ZM2.75 -57.25C18.6752 -57.25 35.1161 -51.5593 48.1922 -39.672L-44.6367 62.4397C-31.0449 74.7959 -13.9045 80.75 2.75 80.75V-57.25ZM48.1922 -39.672C61.487 -27.5857 70.375 -9.70557 70.375 10.5H-67.625C-67.625 31.3686 -58.4473 49.8847 -44.6367 62.4397L48.1922 -39.672ZM70.375 10.5V3H-67.625V10.5H70.375ZM11.6875 83.25C28.889 83.25 46.554 77.0984 60.5326 64.3906L-32.2962 -37.7212C-19.607 -49.2568 -3.69065 -54.75 11.6875 -54.75V83.25ZM60.5326 64.3906C74.73 51.4838 84.125 32.4909 84.125 11.125H-53.875C-53.875 -8.58328 -45.2043 -25.9865 -32.2962 -37.7212L60.5326 64.3906ZM84.125 11.125V2.085H-53.875V11.125H84.125ZM-16.942 63.1809C-26.6664 58.0769 -35.5669 50.3013 -42.1143 39.9922L74.3774 -33.9921C67.3473 -45.0613 57.7525 -53.4681 47.192 -59.0109L-16.942 63.1809ZM-42.1143 39.9922C-48.7044 29.6157 -52.4996 17.268 -52.5 4.25193L85.5 4.24807C85.4996 -9.64568 81.4503 -22.8556 74.3774 -33.9921L-42.1143 39.9922ZM-52.5 4.25V11.125H85.5V4.25H-52.5ZM-52.5 11.125C-52.5 -8.25178 -43.9742 -25.3371 -31.324 -36.8373L61.5049 65.2745C75.9601 52.1333 85.5 32.8224 85.5 11.125H-52.5ZM-31.324 -36.8373C-18.8926 -48.1385 -3.32599 -53.5 11.6875 -53.5V84.5C29.2537 84.5 47.2685 78.2167 61.5049 65.2745L-31.324 -36.8373ZM11.6875 -53.5H4.125V84.5H11.6875V-53.5ZM4.12659 -53.5C14.5544 -53.4998 25.1165 -51.0225 34.8178 -45.9304L-29.3177 76.2605C-18.7803 81.7914 -7.26982 84.4997 4.12341 84.5L4.12659 -53.5ZM34.8178 -45.9304C44.5422 -40.8263 53.4427 -33.0505 59.9898 -22.7414L-56.5028 51.2414C-49.4729 62.3106 -39.8782 70.7176 -29.3177 76.2605L34.8178 -45.9304ZM1.7435 83.25H11.6875V-54.75H1.7435V83.25Z" fill="white" mask="url(#path-1-inside-1_3_4969)"/>
</svg>
