<svg width="18" height="16" viewBox="0 0 18 16" fill="none" xmlns="http://www.w3.org/2000/svg">
<mask id="path-1-inside-1_3_4975" fill="white">
<path d="M17.9459 14.8499L12.1027 9.65596C13.0094 8.61396 13.4999 7.33997 13.4999 5.99997C13.4999 4.39598 12.7957 2.89199 11.5222 1.75799C10.2487 0.623997 8.55221 0 6.74997 0C4.94773 0 3.25124 0.625997 1.97774 1.75799C0.701997 2.88999 0 4.39598 0 5.99997C0 7.60197 0.704247 9.10996 1.97774 10.242C3.25124 11.376 4.94548 11.9999 6.74997 11.9999C8.25746 11.9999 9.68846 11.564 10.8607 10.76L16.7039 15.9519C16.7211 15.9672 16.7414 15.9793 16.7638 15.9875C16.7862 15.9958 16.8102 16 16.8344 16C16.8587 16 16.8827 15.9958 16.9051 15.9875C16.9274 15.9793 16.9478 15.9672 16.9649 15.9519L17.9459 15.0819C17.9631 15.0667 17.9767 15.0486 17.9859 15.0287C17.9952 15.0088 18 14.9875 18 14.9659C18 14.9444 17.9952 14.9231 17.9859 14.9032C17.9767 14.8833 17.9631 14.8652 17.9459 14.8499ZM10.314 9.16796C9.35996 10.014 8.09546 10.48 6.74997 10.48C5.40448 10.48 4.13998 10.014 3.18599 9.16796C2.23424 8.31996 1.70999 7.19597 1.70999 5.99997C1.70999 4.80398 2.23424 3.67798 3.18599 2.83199C4.13998 1.98599 5.40448 1.51999 6.74997 1.51999C8.09546 1.51999 9.36221 1.98399 10.314 2.83199C11.2657 3.67998 11.7899 4.80398 11.7899 5.99997C11.7899 7.19597 11.2657 8.32196 10.314 9.16796Z"/>
</mask>
<path d="M17.9459 14.8499L12.1027 9.65596C13.0094 8.61396 13.4999 7.33997 13.4999 5.99997C13.4999 4.39598 12.7957 2.89199 11.5222 1.75799C10.2487 0.623997 8.55221 0 6.74997 0C4.94773 0 3.25124 0.625997 1.97774 1.75799C0.701997 2.88999 0 4.39598 0 5.99997C0 7.60197 0.704247 9.10996 1.97774 10.242C3.25124 11.376 4.94548 11.9999 6.74997 11.9999C8.25746 11.9999 9.68846 11.564 10.8607 10.76L16.7039 15.9519C16.7211 15.9672 16.7414 15.9793 16.7638 15.9875C16.7862 15.9958 16.8102 16 16.8344 16C16.8587 16 16.8827 15.9958 16.9051 15.9875C16.9274 15.9793 16.9478 15.9672 16.9649 15.9519L17.9459 15.0819C17.9631 15.0667 17.9767 15.0486 17.9859 15.0287C17.9952 15.0088 18 14.9875 18 14.9659C18 14.9444 17.9952 14.9231 17.9859 14.9032C17.9767 14.8833 17.9631 14.8652 17.9459 14.8499ZM10.314 9.16796C9.35996 10.014 8.09546 10.48 6.74997 10.48C5.40448 10.48 4.13998 10.014 3.18599 9.16796C2.23424 8.31996 1.70999 7.19597 1.70999 5.99997C1.70999 4.80398 2.23424 3.67798 3.18599 2.83199C4.13998 1.98599 5.40448 1.51999 6.74997 1.51999C8.09546 1.51999 9.36221 1.98399 10.314 2.83199C11.2657 3.67998 11.7899 4.80398 11.7899 5.99997C11.7899 7.19597 11.2657 8.32196 10.314 9.16796Z" fill="#F8F8F8"/>
<path d="M12.1027 9.65596L-39.9487 -35.6392L-84.7691 15.8666L-33.7384 61.2272L12.1027 9.65596ZM1.97774 1.75799L47.7736 53.3694L47.7962 53.3493L47.8188 53.3292L1.97774 1.75799ZM1.97774 10.242L47.864 -41.2891L47.8415 -41.3092L47.8188 -41.3293L1.97774 10.242ZM10.8607 10.76L56.6919 -40.8201L16.3444 -76.6707L-28.1664 -46.1425L10.8607 10.76ZM16.7039 15.9519L62.5603 -35.6058L62.5477 -35.6169L62.5352 -35.6281L16.7039 15.9519ZM16.8344 16V85V16ZM16.9649 15.9519L-28.8174 -35.6715L-28.8544 -35.6387L-28.8914 -35.6058L16.9649 15.9519ZM17.9459 15.0819L63.7282 66.7054L63.75 66.6861L63.7718 66.6667L17.9459 15.0819ZM10.314 9.16796L56.0946 60.7929L56.1248 60.7661L56.1551 60.7392L10.314 9.16796ZM3.18599 9.16796L-42.7156 60.6854L-42.6552 60.7392L-42.5946 60.7929L3.18599 9.16796ZM3.18599 2.83199L-42.5946 -48.793L-42.6249 -48.7661L-42.6551 -48.7393L3.18599 2.83199ZM63.787 -36.7213L57.9438 -41.9153L-33.7384 61.2272L-27.8952 66.4212L63.787 -36.7213ZM64.1541 54.9511C75.4925 41.9214 82.4999 24.731 82.4999 5.99997H-55.5001C-55.5001 -10.051 -49.4737 -24.6935 -39.9487 -35.6392L64.1541 54.9511ZM82.4999 5.99997C82.4999 -16.7854 72.232 -36.5733 57.4085 -49.773L-34.3641 53.289C-46.6406 42.3573 -55.5001 25.5773 -55.5001 5.99997H82.4999ZM57.4085 -49.773C42.7063 -62.8647 24.3802 -69 6.74997 -69V69C-7.27575 69 -22.2089 64.1127 -34.3641 53.289L57.4085 -49.773ZM6.74997 -69C-10.9314 -69 -29.2173 -62.832 -43.8634 -49.8133L47.8188 53.3292C35.7197 64.084 20.8269 69 6.74997 69V-69ZM-43.8181 -49.8534C-58.7999 -36.5598 -69 -16.6982 -69 5.99997H69C69 25.4902 60.2039 42.3398 47.7736 53.3694L-43.8181 -49.8534ZM-69 5.99997C-69 28.736 -58.7679 48.5647 -43.8634 61.8132L47.8188 -41.3293C60.1764 -30.3448 69 -13.532 69 5.99997H-69ZM-43.9086 61.773C-29.2145 74.8575 -10.8939 80.9999 6.74997 80.9999V-57.0001C20.7849 -57.0001 35.7169 -52.1056 47.864 -41.2891L-43.9086 61.773ZM6.74997 80.9999C21.5175 80.9999 36.6842 76.7182 49.8878 67.6624L-28.1664 -46.1425C-17.3073 -53.5903 -5.00253 -57.0001 6.74997 -57.0001V80.9999ZM-34.9705 62.34L-29.1273 67.5319L62.5352 -35.6281L56.6919 -40.8201L-34.9705 62.34ZM-29.1524 67.5096C-22.4287 73.4898 -14.8706 77.8672 -7.08552 80.7348L40.6131 -48.7598C48.3534 -45.9087 55.8708 -41.5555 62.5603 -35.6058L-29.1524 67.5096ZM-7.08552 80.7348C0.694055 83.6003 8.80115 85 16.8344 85V-53C24.8192 -53 32.8783 -51.6088 40.6131 -48.7598L-7.08552 80.7348ZM16.8344 85C24.8682 85 32.9752 83.6002 40.7544 80.7348L-6.94426 -48.7598C0.790099 -51.6087 8.84916 -53 16.8344 -53V85ZM40.7544 80.7348C48.5381 77.8677 56.0965 73.4908 62.8213 67.5096L-28.8914 -35.6058C-22.2009 -41.5564 -14.6832 -45.9092 -6.94426 -48.7598L40.7544 80.7348ZM62.7472 67.5754L63.7282 66.7054L-27.8364 -36.5415L-28.8174 -35.6715L62.7472 67.5754ZM63.7718 66.6667C70.5134 60.6777 76.3573 53.1212 80.5241 44.1831L-44.5522 -14.1257C-40.404 -23.0239 -34.5873 -30.5443 -27.8799 -36.5028L63.7718 66.6667ZM80.5241 44.1831C84.7043 35.2164 87 25.2609 87 14.9659H-51C-51 4.71408 -48.7138 -5.19876 -44.5522 -14.1257L80.5241 44.1831ZM87 14.9659C87 4.67041 84.704 -5.28505 80.5241 -14.2513L-44.5522 44.0576C-48.7136 35.1312 -51 25.2184 -51 14.9659H87ZM80.5241 -14.2513C76.3579 -23.1879 70.5146 -30.7448 63.7718 -36.7348L-27.8799 66.4347C-34.5885 60.4751 -40.4046 52.9544 -44.5522 44.0576L80.5241 -14.2513ZM-35.4667 -42.457C-23.0775 -53.4436 -7.78757 -58.52 6.74997 -58.52V79.48C23.9785 79.48 41.7975 73.4715 56.0946 60.7929L-35.4667 -42.457ZM6.74997 -58.52C21.2875 -58.52 36.5775 -53.4436 48.9666 -42.457L-42.5946 60.7929C-28.2975 73.4715 -10.4786 79.48 6.74997 79.48V-58.52ZM49.0875 -42.3495C61.7114 -31.1018 70.71 -13.9351 70.71 5.99997H-67.29C-67.29 28.327 -57.2429 47.7417 -42.7156 60.6854L49.0875 -42.3495ZM70.71 5.99997C70.71 25.889 61.7454 43.0981 49.0271 54.4032L-42.6551 -48.7393C-57.2769 -35.7421 -67.29 -16.281 -67.29 5.99997H70.71ZM48.9666 54.4569C36.5775 65.4435 21.2875 70.52 6.74997 70.52V-67.48C-10.4786 -67.48 -28.2976 -61.4715 -42.5946 -48.793L48.9666 54.4569ZM6.74997 70.52C-7.67206 70.52 -23.0615 65.5101 -35.5876 54.3494L56.2155 -48.6855C41.7859 -61.5421 23.863 -67.48 6.74997 -67.48V70.52ZM-35.5876 54.3494C-48.2114 43.1017 -57.2101 25.935 -57.2101 5.99997H80.7899C80.7899 -16.3271 70.7428 -35.7418 56.2155 -48.6855L-35.5876 54.3494ZM-57.2101 5.99997C-57.2101 -13.889 -48.2454 -31.0981 -35.5271 -42.4033L56.1551 60.7392C70.7768 47.7421 80.7899 28.281 80.7899 5.99997H-57.2101Z" fill="white" mask="url(#path-1-inside-1_3_4975)"/>
</svg>
