<svg width="18" height="16" viewBox="0 0 18 16" fill="none" xmlns="http://www.w3.org/2000/svg">
<path d="M17.9459 14.8499L12.1027 9.65596C13.0094 8.61396 13.4999 7.33997 13.4999 5.99997C13.4999 4.39598 12.7957 2.89199 11.5222 1.75799C10.2487 0.623997 8.55221 0 6.74997 0C4.94773 0 3.25124 0.625997 1.97774 1.75799C0.701997 2.88999 0 4.39598 0 5.99997C0 7.60197 0.704247 9.10996 1.97774 10.242C3.25124 11.376 4.94548 11.9999 6.74997 11.9999C8.25746 11.9999 9.68846 11.564 10.8607 10.76L16.7039 15.9519C16.7211 15.9672 16.7414 15.9793 16.7638 15.9875C16.7862 15.9958 16.8102 16 16.8344 16C16.8587 16 16.8827 15.9958 16.9051 15.9875C16.9274 15.9793 16.9478 15.9672 16.9649 15.9519L17.9459 15.0819C17.9631 15.0667 17.9767 15.0486 17.9859 15.0287C17.9952 15.0088 18 14.9875 18 14.9659C18 14.9444 17.9952 14.9231 17.9859 14.9032C17.9767 14.8833 17.9631 14.8652 17.9459 14.8499ZM10.314 9.16796C9.35996 10.014 8.09546 10.48 6.74997 10.48C5.40448 10.48 4.13998 10.014 3.18599 9.16796C2.23424 8.31996 1.70999 7.19597 1.70999 5.99997C1.70999 4.80398 2.23424 3.67798 3.18599 2.83199C4.13998 1.98599 5.40448 1.51999 6.74997 1.51999C8.09546 1.51999 9.36221 1.98399 10.314 2.83199C11.2657 3.67998 11.7899 4.80398 11.7899 5.99997C11.7899 7.19597 11.2657 8.32196 10.314 9.16796Z" fill="#F8F8F8"/>
</svg>
