<svg width="17" height="16" viewBox="0 0 17 16" fill="none" xmlns="http://www.w3.org/2000/svg">
<path d="M8.5 3.55556C8.68786 3.55556 8.86803 3.62579 9.00087 3.75082C9.13371 3.87584 9.20833 4.04541 9.20833 4.22222V7.33333H12.5139C12.7017 7.33333 12.8819 7.40357 13.0148 7.5286C13.1476 7.65362 13.2222 7.82319 13.2222 8C13.2222 8.17681 13.1476 8.34638 13.0148 8.4714C12.8819 8.59643 12.7017 8.66667 12.5139 8.66667H9.20833V11.7778C9.20833 11.9546 9.13371 12.1242 9.00087 12.2492C8.86803 12.3742 8.68786 12.4444 8.5 12.4444C8.31214 12.4444 8.13197 12.3742 7.99913 12.2492C7.86629 12.1242 7.79167 11.9546 7.79167 11.7778V8.66667H4.48611C4.29825 8.66667 4.11808 8.59643 3.98524 8.4714C3.85241 8.34638 3.77778 8.17681 3.77778 8C3.77778 7.82319 3.85241 7.65362 3.98524 7.5286C4.11808 7.40357 4.29825 7.33333 4.48611 7.33333H7.79167V4.22222C7.79167 4.04541 7.86629 3.87584 7.99913 3.75082C8.13197 3.62579 8.31214 3.55556 8.5 3.55556ZM0 2.88889C0 2.12271 0.323387 1.38791 0.899019 0.846136C1.47465 0.304364 2.25538 0 3.06944 0H13.9306C14.7446 0 15.5253 0.304364 16.101 0.846136C16.6766 1.38791 17 2.12271 17 2.88889V13.1111C17 13.8773 16.6766 14.6121 16.101 15.1539C15.5253 15.6956 14.7446 16 13.9306 16H3.06944C2.25538 16 1.47465 15.6956 0.899019 15.1539C0.323387 14.6121 0 13.8773 0 13.1111V2.88889ZM3.06944 1.33333C2.6311 1.33333 2.21071 1.49722 1.90075 1.78895C1.5908 2.08067 1.41667 2.47633 1.41667 2.88889V13.1111C1.41667 13.9698 2.15711 14.6667 3.06944 14.6667H13.9306C14.3689 14.6667 14.7893 14.5028 15.0992 14.2111C15.4092 13.9193 15.5833 13.5237 15.5833 13.1111V2.88889C15.5833 2.47633 15.4092 2.08067 15.0992 1.78895C14.7893 1.49722 14.3689 1.33333 13.9306 1.33333H3.06944Z" fill="white"/>
</svg>
