<svg width="42" height="37" viewBox="0 0 42 37" fill="none" xmlns="http://www.w3.org/2000/svg">
<path d="M21.318 4.84836C22.0273 4.84836 22.7297 4.96992 23.3851 5.2061C24.0404 5.44229 24.6359 5.78847 25.1374 6.22488C25.639 6.6613 26.0369 7.17939 26.3083 7.74959C26.5798 8.3198 26.7195 8.93093 26.7195 9.54811C26.7195 10.1653 26.5798 10.7764 26.3083 11.3466C26.0369 11.9168 25.639 12.4349 25.1374 12.8713C24.6359 13.3078 24.0404 13.6539 23.3851 13.8901C22.7297 14.1263 22.0273 14.2479 21.318 14.2479C19.8854 14.2479 18.5115 13.7527 17.4986 12.8713C16.4856 11.99 15.9165 10.7946 15.9165 9.54811C15.9165 8.30166 16.4856 7.10626 17.4986 6.22488C18.5115 5.34351 19.8854 4.84836 21.318 4.84836ZM21.318 24.9902C28.9573 24.9902 37.0081 28.2576 37.0081 29.6899V32.1517H5.62792V29.6899C5.62792 28.2576 13.6787 24.9902 21.318 24.9902ZM21.318 0.596191C15.6336 0.596191 11.0294 4.60218 11.0294 9.54811C11.0294 14.4941 15.6336 18.5 21.318 18.5C27.0024 18.5 31.6066 14.4941 31.6066 9.54811C31.6066 4.60218 27.0024 0.596191 21.318 0.596191ZM21.318 20.738C14.4504 20.738 0.740845 23.7369 0.740845 29.6899V36.4039H41.8952V29.6899C41.8952 23.7369 28.1856 20.738 21.318 20.738Z" fill="#0D024C"/>
<path d="M21.318 4.84836C22.0273 4.84836 22.7297 4.96992 23.3851 5.2061C24.0404 5.44229 24.6359 5.78847 25.1374 6.22488C25.639 6.6613 26.0369 7.17939 26.3083 7.74959C26.5798 8.3198 26.7195 8.93093 26.7195 9.54811C26.7195 10.1653 26.5798 10.7764 26.3083 11.3466C26.0369 11.9168 25.639 12.4349 25.1374 12.8713C24.6359 13.3078 24.0404 13.6539 23.3851 13.8901C22.7297 14.1263 22.0273 14.2479 21.318 14.2479C19.8854 14.2479 18.5115 13.7527 17.4986 12.8713C16.4856 11.99 15.9165 10.7946 15.9165 9.54811C15.9165 8.30166 16.4856 7.10626 17.4986 6.22488C18.5115 5.34351 19.8854 4.84836 21.318 4.84836ZM21.318 24.9902C28.9573 24.9902 37.0081 28.2576 37.0081 29.6899V32.1517H5.62792V29.6899C5.62792 28.2576 13.6787 24.9902 21.318 24.9902ZM21.318 0.596191C15.6336 0.596191 11.0294 4.60218 11.0294 9.54811C11.0294 14.4941 15.6336 18.5 21.318 18.5C27.0024 18.5 31.6066 14.4941 31.6066 9.54811C31.6066 4.60218 27.0024 0.596191 21.318 0.596191ZM21.318 20.738C14.4504 20.738 0.740845 23.7369 0.740845 29.6899V36.4039H41.8952V29.6899C41.8952 23.7369 28.1856 20.738 21.318 20.738Z" stroke="#0D024C"/>
</svg>
